<?xml version="1.0" standalone="no"?>
  <!DOCTYPE svg PUBLIC "-//W3C//DTD SVG 1.1//EN" "http://www.w3.org/Graphics/SVG/1.1/DTD/svg11.dtd" >
  <svg>
  <metadata>
  Created by font-carrier
  </metadata>
  <defs>
  <font id="Asessor" horiz-adv-x="2449" vert-adv-y="2449" >
    <font-face
      
      font-family="Asessor"
      
      font-weight="400"
      
      font-stretch="normal"
      
      units-per-em="2150"
      
      ascent="1900"
      
      descent="-500"
      
    />
      <missing-glyph />

      

      
      <glyph glyph-name="uni21" unicode="&#x21;" d="M231 365Q277 420 304 485Q310 501 348 618L557 1262Q559 1268 559 1273Q559 1298 528 1315Q501 1331 475 1331Q616 1371 762 1430Q827 1460 961 1503Q848 1425 810 1355Q771 1257 733 1159L526 639Q485 537 445 495Q415 464 341 428Q259 387 231 365M285 252Q343 252 380.50 213.50Q418 175 418 117Q418 52 376.50 11.50Q335-29 270-29Q150-29 150 102Q150 160 189 206Q228 252 285 252Z"  horiz-adv-x="504" vert-adv-y="2150"  />

      
      <glyph glyph-name="uni22" unicode="&#x22;" d="M459 918Q647 1044 647 1149Q647 1174 612 1186Q563 1203 548 1216Q514 1248 514 1321Q514 1376 547.50 1416Q581 1456 635 1456Q774 1456 774 1309Q774 1190 681 1063Q594 945 481 887L459 918M766 918Q954 1044 954 1149Q954 1174 919 1186Q870 1203 855 1216Q821 1248 821 1321Q821 1376 854.50 1416Q888 1456 942 1456Q1081 1456 1081 1309Q1081 1190 988 1063Q901 945 788 887L766 918Z"  horiz-adv-x="793" vert-adv-y="2150"  />

      
      <glyph glyph-name="uni23" unicode="&#x23;" d="M1057 858L713 862L623 557L965 559L1057 858M1544 831Q1511 856 1378 859Q1301 859 1223 858L1135 559L1460 561Q1393 475 1393 401Q1393 377 1403 360Q1370 385 1238 388Q1160 388 1083 387L975 18Q926 45 874 45Q817 45 772 14Q815 64 859 202Q885 296 911 389L573 391L463 18Q414 45 362 45Q305 45 260 14Q303 63 347 205Q374 299 401 393L94 397Q160 498 160 565Q160 586 154 602Q197 555 270 555L451 555L547 864L236 868Q301 969 301 1036Q301 1057 295 1073Q338 1026 412 1026L598 1026L719 1417Q772 1397 823 1397Q883 1397 926 1419Q859 1359 838 1288L762 1028L1110 1030L1231 1417Q1284 1397 1335 1397Q1395 1397 1438 1419Q1371 1359 1350 1288L1274 1030L1602 1032Q1534 945 1534 877Q1534 852 1544 831Z"  horiz-adv-x="1311" vert-adv-y="2150"  />

      
      <glyph glyph-name="uni24" unicode="&#x24;" d="M1157 473Q1176 526 1176 592Q1176 714 1006 801L788 913Q670 974 670 1128Q670 1295 802 1389Q921 1475 1092 1466L1147 1645L1239 1649L1174 1454Q1209 1449 1302 1417Q1388 1386 1405 1386Q1426 1386 1442 1413L1470 1399L1313 922L1280 926Q1286 950 1286 977Q1286 1057 1231 1123Q1179 1184 1100 1210L1008 948Q1054 927 1202 823Q1339 727 1339 530Q1339 294 1131 129Q937-25 694-25L631-221L543-219L606-16Q468-16 336 106Q201 230 201 367Q201 540 331 642Q451 737 629 737Q977 737 1157 473M791 600Q697 600 633 567Q551 525 551 440Q551 374 591 320Q633 262 696 254L805 600L791 600M911 1090Q911 1044 944 1006L1010 1217Q911 1192 911 1090M1128 434Q1042 549 893 586L780 242Q795 240 809 240Q900 240 992.50 296.50Q1085 353 1128 434Z"  horiz-adv-x="1284" vert-adv-y="2150"  />

      
      <glyph glyph-name="uni25" unicode="&#x25;" d="M358 805Q358 996 477 1212Q613 1458 786 1458Q904 1458 967 1375Q1022 1300 1022 1178Q1022 977 907 772Q774 535 590 535Q475 535 413 615Q358 687 358 805M1149 240Q1149 434 1269 650Q1405 897 1581 897Q1691 897 1755 821Q1815 749 1815 637Q1815 426 1706 219Q1577-25 1386-25Q1271-25 1208 51Q1149 122 1149 240M598 0L1458 1436L1563 1436L694 0L598 0M1448 193Q1554 193 1625 298Q1688 392 1688 504Q1688 581 1645 627.50Q1602 674 1526 674Q1421 674 1345 572Q1276 478 1276 369Q1276 291 1323 242Q1370 193 1448 193M655 754Q755 754 828 848Q895 935 895 1038Q895 1233 733 1233Q624 1233 550 1133Q483 1042 483 928Q483 852 531 803Q579 754 655 754Z"  horiz-adv-x="1729" vert-adv-y="2150"  />

      
      <glyph glyph-name="uni26" unicode="&#x26;" d="M731 821Q707 823 670 840Q510 913 510 1067Q510 1270 689 1401Q850 1518 1061 1518Q1170 1518 1261 1475Q1376 1421 1376 1323Q1376 1265 1322.50 1215Q1269 1165 1210 1165Q1153 1165 1153 1235Q1153 1251 1159 1283Q1165 1315 1165 1331Q1165 1372 1133 1398.50Q1101 1425 1059 1425Q945 1425 875 1302Q815 1198 815 1075Q815 986 879.50 906.50Q944 827 944 827Q944 785 887 760Q886 759 825 750Q698 730 591 585Q489 445 489 313Q489 205 537 137Q591 59 694 59Q839 59 965 203Q1087 342 1087 489Q1087 610 979 610Q930 610 885 577Q836 541 836 494Q836 461 864 461Q884 461 893 465Q948 471 948 471Q1008 471 1008 403Q1008 336 960.50 283.50Q913 231 848 231Q735 231 735 391Q735 555 863 685Q991 815 1155 815Q1250 815 1395.50 716.50Q1541 618 1620 618Q1675 618 1710 659Q1745 700 1745 756Q1745 801 1704 801Q1683 801 1638 777.50Q1593 754 1573 754Q1503 754 1503 834Q1503 902 1560 954Q1617 1006 1686 1006Q1757 1006 1798 943Q1833 888 1833 813Q1833 669 1732 541Q1624 403 1485 403Q1393 403 1233 500Q1171 270 976.50 117.50Q782-35 545-35Q386-35 289.50 56Q193 147 193 305Q193 525 353 675Q510 821 731 821Z"  horiz-adv-x="1655" vert-adv-y="2150"  />

      
      <glyph glyph-name="uni27" unicode="&#x27;" d="M444 918Q633 1044 633 1149Q633 1174 598 1186Q549 1202 534 1216Q500 1247 500 1321Q500 1376 533.50 1416Q567 1456 621 1456Q760 1456 760 1309Q760 1190 667 1063Q580 945 467 887L444 918Z"  horiz-adv-x="446" vert-adv-y="2150"  />

      
      <glyph glyph-name="uni28" unicode="&#x28;" d="M967 1630L961 1581Q746 1306 625 919Q510 550 510 184Q510 10 545-154L532-203Q305 23 305 416Q305 766 491 1101Q672 1429 967 1630Z"  horiz-adv-x="629" vert-adv-y="2150"  />

      
      <glyph glyph-name="uni29" unicode="&#x29;" d="M129-203L137-154Q588 475 588 1243Q588 1421 551 1581L567 1630Q793 1405 793 1012Q793 662 607 325Q424-7 129-203Z"  horiz-adv-x="641" vert-adv-y="2150"  />

      
      <glyph glyph-name="uni2a" unicode="&#x2a;" d="M690 1104L530 1139Q477 1151 477 1214Q477 1259 509.50 1296Q542 1333 586 1333Q636 1333 664 1292L750 1165Q735 1309 735 1309Q735 1366 763 1410Q796 1462 850 1462Q922 1462 922 1395Q922 1346 823 1165L967 1292Q1013 1333 1059 1333Q1124 1333 1124 1249Q1124 1158 1030 1139L854 1104L993 1063Q1053 1045 1053 989Q1053 943 1018 902.50Q983 862 938 862Q893 862 847 937Q820 990 793 1044L813 862Q818 817 778.50 784.50Q739 752 694 752Q618 752 618 821Q618 859 662 936Q694 990 727 1044Q679 994 632 944Q549 864 510 864Q430 864 430 936Q430 1035 535 1063L690 1104Z"  horiz-adv-x="823" vert-adv-y="2150"  />

      
      <glyph glyph-name="uni2b" unicode="&#x2b;" d="M451 174Q469 317 471 516Q272 514 129 496Q203 614 233 721Q312 713 469 702Q468 789 455 961Q596 973 682 1051Q668 866 659 705Q821 713 1006 727Q928 639 915 500Q843 508 657 514Q659 462 676 279Q569 248 451 174Z"  horiz-adv-x="737" vert-adv-y="2150"  />

      
      <glyph glyph-name="uni2c" unicode="&#x2c;" d="M66-287Q123-258 185-188Q254-109 254-55Q254-33 219-20Q170-3 154 13Q119 46 119 117Q119 173 155 212.50Q191 252 246 252Q306 252 344.50 210.50Q383 169 383 109Q383-9 289-139Q201-260 90-319L66-287Z"  horiz-adv-x="436" vert-adv-y="2150"  />

      
      <glyph glyph-name="uni2d" unicode="&#x2d;" d="M229 496Q303 614 334 721Q551 700 623 700Q629 700 963 727Q887 639 872 500Q741 516 606 516Q387 516 229 496Z"  horiz-adv-x="805" vert-adv-y="2150"  />

      
      <glyph glyph-name="uni2010" unicode="&#x2010;" d="M229 496Q303 614 334 721Q551 700 623 700Q629 700 963 727Q887 639 872 500Q741 516 606 516Q387 516 229 496Z"  horiz-adv-x="805" vert-adv-y="2150"  />

      
      <glyph glyph-name="uni2e" unicode="&#x2e;" d="M248 258Q308 258 348.50 215Q389 172 389 111Q389 54 350 15.50Q311-23 254-23Q194-23 156.50 17.50Q119 58 119 119Q119 172 157.50 215Q196 258 248 258Z"  horiz-adv-x="432" vert-adv-y="2150"  />

      
      <glyph glyph-name="uni2f" unicode="&#x2f;" d="M70 14Q111 55 150 147L690 1417Q741 1397 793 1397Q850 1397 897 1419Q824 1359 795 1288L272 18Q227 45 174 45Q119 45 70 14Z"  horiz-adv-x="526" vert-adv-y="2150"  />

      
      <glyph glyph-name="uni30" unicode="&#x30;" d="M229 326Q229 575 384 855Q561 1174 786 1174Q926 1174 1008 1074Q1085 981 1085 838Q1085 561 945 298Q780-14 530-14Q386-14 304 86Q229 179 229 326M614 264Q748 264 840 396Q924 515 924 655Q924 757 872 819Q817 885 717 885Q573 885 479 757Q393 641 393 492Q393 395 455 329.50Q517 264 614 264Z"  horiz-adv-x="946" vert-adv-y="2150"  />

      
      <glyph glyph-name="uni31" unicode="&#x31;" d="M139-20L141 20Q299 57 415 230Q486 336 569 553Q624 696 682 874L674 874Q600 874 539 822Q478 770 461 696L432 698L612 1149Q689 1178 807 1190Q906 1198 1006 1206Q924 1011 810 690Q668 287 668 195Q668 86 760 0Q635 6 500 6Q309 6 139-20Z"  horiz-adv-x="944" vert-adv-y="2150"  />

      
      <glyph glyph-name="uni32" unicode="&#x32;" d="M43-4Q126 224 557 457Q695 532 742 572Q836 653 836 758Q836 820 793 860.50Q750 901 688 901Q619 901 570.50 856Q522 811 522 743Q522 684 559 660Q569 654 649 629Q602 602 545 602Q454 602 395 679Q340 751 340 844Q340 943 418 1042Q519 1171 711 1171Q878 1171 980 1090Q1092 1002 1092 840Q1092 663 867 520Q749 446 487 346Q429 324 311 242Q395 254 463 254Q505 254 589 252Q673 250 715 250Q801 250 851 284Q898 316 938 395Q945 409 948 420L977 418L838 41Q818-12 709-12Q629-12 469 11.50Q309 35 229 35Q156 35 57-18L43-4Z"  horiz-adv-x="948" vert-adv-y="2150"  />

      
      <glyph glyph-name="uni33" unicode="&#x33;" d="M645 410L627 403Q590 440 530 440Q484 440 449 408.50Q414 377 414 332Q414 284 464 246Q511 211 561 211Q662 211 741.50 283Q821 355 821 455Q821 610 596 610L602 649Q803 672 803 782Q803 832 762 866.50Q721 901 670 901Q584 901 514 856Q439 808 418 729L395 727L530 1085Q612 1151 768 1151Q1030 1151 1030 924Q1030 761 772 635Q896 588 934 546Q983 492 983 371Q983 194 834 83Q699-18 516-18Q380-18 273 66Q158 157 158 289Q158 400 218 473Q282 551 391 551Q553 551 645 410Z"  horiz-adv-x="946" vert-adv-y="2150"  />

      
      <glyph glyph-name="uni34" unicode="&#x34;" d="M1022 618L930 313Q844 281 748 281Q748 255 744.50 202Q741 149 741 123Q741 51 797-10Q545 4 334-2L336 29Q369 27 373 27Q445 27 526.50 118.50Q608 210 608 283Q543 326 397 326Q313 326 265 305Q208 272 152 240Q250 383 311 563Q411 858 463 947Q587 1159 782 1159Q903 1159 989 1112L866 801Q755 877 705 877Q520 877 408 565Q417 563 424 563Q447 563 493.50 571.50Q540 580 563 580Q585 580 628 574.50Q671 569 692 569Q718 569 737 592Q756 615 756 641Q756 653 752 664L950 745Q920 682 870 549Q913 557 951 579Q1007 612 1022 618Z"  horiz-adv-x="944" vert-adv-y="2150"  />

      
      <glyph glyph-name="uni35" unicode="&#x35;" d="M580 432Q537 459 483 459Q441 459 416 426Q393 397 393 354Q393 302 432 267.50Q471 233 524 233Q634 233 714 326Q791 416 791 528Q791 608 741.50 656.50Q692 705 612 705Q563 705 494 659Q432 619 397 573L385 586Q442 747 561 1065Q587 1130 655 1143Q706 1153 760 1153Q786 1153 839 1151Q892 1149 918 1149Q987 1149 1038 1174L938 922Q919 874 788 874Q760 874 705.50 878.50Q651 883 623 883Q553 883 485 713Q580 780 676 780Q810 780 891 674Q965 578 965 440Q965 243 832 110Q699-23 502-23Q362-23 268 49Q164 128 164 264Q164 371 229 445Q298 522 403 522Q518 522 580 432Z"  horiz-adv-x="946" vert-adv-y="2150"  />

      
      <glyph glyph-name="uni36" unicode="&#x36;" d="M1096 1110L967 768Q862 887 733 887Q589 887 477 770Q365 653 365 508Q365 410 424 338Q486 260 582 260Q666 260 722 322Q778 384 778 469Q778 547 721.50 594Q665 641 586 641Q469 641 444 502L428 502Q433 606 510 673Q585 737 690 737Q832 737 915 648Q995 561 995 418Q995 240 893 116Q783-16 610-16Q431-16 329 111Q236 228 236 412Q236 685 420 914Q616 1157 883 1157Q985 1157 1096 1110Z"  horiz-adv-x="946" vert-adv-y="2150"  />

      
      <glyph glyph-name="uni37" unicode="&#x37;" d="M549 514Q535 516 520 516Q506 516 428 504Q460 544 492 584Q527 618 580 618Q610 618 631 608Q733 685 895 885Q819 850 745 850Q708 850 633.50 858Q559 866 522 866Q460 866 396.50 806.50Q333 747 319 684L287 684L408 1026Q413 1043 424 1077Q452 1157 696 1157Q831 1157 997 1133L993 1133Q1012 1133 1051 1148Q1090 1163 1112 1163Q1071 979 850 715Q798 653 774 612L791 612Q848 612 905 629L791 502L692 498Q619 416 561 301Q494 169 494 78Q494 25 530-16Q566-57 618-57Q712-57 732 41Q740 122 748 203L776 207Q809 14 809-6Q809-139 726-242Q637-352 508-352Q385-352 311-260Q242-175 242-49Q242 70 299 199Q355 325 442 410L549 514Z"  horiz-adv-x="946" vert-adv-y="2150"  />

      
      <glyph glyph-name="uni38" unicode="&#x38;" d="M659 723Q637 717 614 717Q546 717 493 772Q440 827 440 895Q440 1008 528 1085Q612 1159 727 1159Q846 1159 928 1104Q1024 1041 1024 928Q1024 812 923 742Q865 702 703 646Q549 593 492 547Q406 478 406 406Q406 240 588 240Q683 240 754 292Q831 350 831 442Q831 581 719 606Q750 618 784 618Q877 618 932 544Q981 477 981 381Q981 192 861 85Q746-18 555-18Q405-18 291 71Q168 167 168 313Q168 447 266 533Q340 597 489 647Q609 684 729 721Q829 756 829 840Q829 887 795 915.50Q761 944 713 944Q661 944 623.50 908Q586 872 586 821Q586 725 659 723Z"  horiz-adv-x="946" vert-adv-y="2150"  />

      
      <glyph glyph-name="uni39" unicode="&#x39;" d="M225 35L340 365Q463 256 588 256Q729 256 838.50 374Q948 492 948 633Q948 732 889 805Q826 883 729 883Q646 883 591.50 820.50Q537 758 537 674Q537 597 594 548.50Q651 500 729 500Q846 500 870 641Q879 618 879 600Q879 505 809 455Q747 410 649 410Q515 410 416 501Q317 592 317 725Q317 909 416 1029Q522 1159 702 1159Q880 1159 983 1029Q1077 910 1077 727Q1077 447 894 223Q699-14 426-14Q301-14 225 35Z"  horiz-adv-x="944" vert-adv-y="2150"  />

      
      <glyph glyph-name="uni3a" unicode="&#x3a;" d="M268 258Q331 258 370.50 215.50Q410 173 410 109Q410 51 371 14Q332-23 274-23Q215-23 178 18Q141 59 141 119Q141 173 178 215.50Q215 258 268 258M475 872Q536 872 577 830Q618 788 618 727Q618 670 579 632Q540 594 483 594Q350 594 350 729Q350 786 383 827Q419 872 475 872Z"  horiz-adv-x="473" vert-adv-y="2150"  />

      
      <glyph glyph-name="uni3b" unicode="&#x3b;" d="M477 870Q537 870 573.50 833.50Q610 797 610 737Q610 671 568.50 632.50Q527 594 461 594Q342 594 342 727Q342 783 382 826.50Q422 870 477 870M59-287Q168-231 227-137Q264-78 264-55Q264-33 232-22Q187-7 173 5Q141 33 141 98Q141 163 180 207.50Q219 252 283 252Q401 252 401 115Q401-2 294-138Q196-262 82-319L59-287Z"  horiz-adv-x="467" vert-adv-y="2150"  />

      
      <glyph glyph-name="uni3c" unicode="&#x3c;" d="M1276 324Q1231 256 1231 203Q1231 174 1243 137L225 643Q279 715 279 766Q279 782 258 823L1454 1333Q1405 1264 1405 1217Q1405 1190 1421 1145L426 731L1276 324Z"  horiz-adv-x="1352" vert-adv-y="2150"  />

      
      <glyph glyph-name="uni3d" unicode="&#x3d;" d="M98 311Q174 430 203 537Q420 516 492 516Q641 516 975 543Q899 455 885 315Q754 332 475 332Q256 332 98 311M221 680Q297 799 326 905Q543 885 614 885Q764 885 1098 911Q1022 823 1008 684Q876 700 598 700Q379 700 221 680Z"  horiz-adv-x="766" vert-adv-y="2150"  />

      
      <glyph glyph-name="uni3e" unicode="&#x3e;" d="M170 324L1163 731L315 1145Q354 1194 354 1276Q354 1302 348 1337L348 1333L1376 817Q1323 739 1323 686Q1323 666 1331 643L137 137Q182 213 182 264Q182 286 170 324Z"  horiz-adv-x="1352" vert-adv-y="2150"  />

      
      <glyph glyph-name="uni3f" unicode="&#x3f;" d="M442 256Q500 256 536.50 219.50Q573 183 573 125Q573 61 531.50 19Q490-23 426-23Q303-23 303 104Q303 162 343.50 209Q384 256 442 256M717 1073Q633 1018 543 1018Q428 1018 428 1133Q428 1276 534 1376Q638 1473 782 1473Q905 1473 987 1419Q1083 1356 1083 1239Q1083 1126 1021 1021.50Q959 917 860 858Q750 816 641 773Q494 712 494 625Q494 559 567 559Q664 559 664 631Q664 676 623 676Q610 676 598 670Q651 723 739 723Q856 723 856 616Q856 499 762 422Q674 350 555 350Q456 350 380 399Q293 455 293 549Q293 638 350 726Q404 810 485 856Q603 902 721 947Q870 1016 870 1139Q870 1183 843 1213Q816 1243 772 1243Q719 1243 676 1217Q625 1186 625 1137Q625 1096 717 1073Z"  horiz-adv-x="782" vert-adv-y="2150"  />

      
      <glyph glyph-name="uni40" unicode="&#x40;" d="M1198 266Q1408 266 1562 462Q1706 645 1706 862Q1706 1093 1553 1227Q1408 1354 1174 1354Q838 1354 578 1109Q315 860 315 526Q315 254 497 97Q670-51 946-51Q1270-51 1520 180L1485 303Q1235 94 961 94Q748 94 615 209Q475 330 475 539Q475 807 678.50 1005.50Q882 1204 1151 1204Q1327 1204 1439 1118Q1561 1023 1561 852Q1561 646 1425 508Q1330 412 1253 412Q1223 412 1223 457Q1223 507 1278 666Q1316 769 1354 872L1126 760Q1139 733 1139 707Q1139 622 1092 543Q1037 453 958 453Q915 453 887.50 484.50Q860 516 860 559Q860 636 911 712Q967 797 1040 797Q1082 797 1102 778L1354 907Q1305 983 1171 983Q993 983 842 796Q698 618 698 436Q698 370 742.50 319Q787 268 852 268Q908 268 971 336Q989 354 1061 451Q1059 436 1059 420Q1059 266 1198 266Z"  horiz-adv-x="1731" vert-adv-y="2150"  />

      
      <glyph glyph-name="uni41" unicode="&#x41;" d="M752 788L973 1366Q1147 1475 1350 1475Q1366 1475 1414 1459Q1565 1406 1565 1251Q1565 1181 1534 1061L1401 547Q1397 532 1397 485Q1397 448 1423.50 421.50Q1450 395 1487 395Q1551 395 1612 485Q1629 510 1690 631L1722 627L1511 6L1468 4Q1479 49 1499 111Q1397 4 1343 4Q1274 4 1229 49Q1184 94 1184 162Q1184 187 1192 221L1376 1001Q1378 1009 1378 1018Q1378 1077 1313 1114Q1257 1147 1194 1147Q1049 1147 941 1028Q889 970 784 786L752 788M754 428Q637 559 526 559Q449 559 396 521Q336 477 336 403Q336 217 520 217Q699 217 797 349Q867 444 913 645Q940 764 940 784Q940 816 893 815Q899 847 934 907Q1007 1034 1157 1034Q1185 1034 1198 1032Q1148 1002 1120 965Q1085 919 965 469Q909 261 828 156Q724 22 536-13Q500-20 453-20Q93-20 20 215Q0 280 0 322Q0 480 121 582Q235 678 395 678Q509 678 616 609Q731 534 754 428M995 422Q1037 560 1074 618Q1139 721 1243 721L1198 549Q1051 549 995 422Z"  horiz-adv-x="1565" vert-adv-y="2150"  />

      
      <glyph glyph-name="uni42" unicode="&#x42;" d="M594 776L809 1358Q1011 1468 1253 1468Q1425 1468 1546 1377Q1679 1276 1679 1110Q1679 964 1572 862Q1503 796 1337 713Q1441 692 1506 600Q1567 514 1567 406Q1567 245 1461 121Q1350-10 1192-10Q1137-10 973 41L956-31L918-33L1079 526L1118 520Q1108 473 1108 438Q1108 305 1243 305Q1307 305 1348 374Q1382 432 1382 502Q1382 570 1337 621Q1292 672 1225 672Q1169 672 1120 635L1161 756Q1188 733 1219 733Q1257 733 1315 772Q1415 840 1415 961Q1415 1045 1339 1096Q1273 1141 1184 1141Q1008 1141 860 1030Q747 946 627 774L594 776M821 451Q729 588 561 588Q476 588 414 539Q346 485 346 403Q346 320 412 276Q468 238 555 238Q718 238 819 377Q880 460 950 662Q1001 810 1001 881Q1001 928 967 928Q956 928 948 922Q1053 1055 1169 1055Q1221 1055 1260 1038Q1172 973 1139 903.50Q1106 834 1077 719Q1001 423 957 329Q865 135 680 41Q551-25 401-25Q244-25 126 72Q0 175 0 328Q0 498 134 608Q259 711 434 711Q717 711 821 451Z"  horiz-adv-x="1559" vert-adv-y="2150"  />

      
      <glyph glyph-name="uni43" unicode="&#x43;" d="M684 659L590 397Q635 350 733 322Q817 297 895 297Q1133 297 1304 475Q1397 571 1430 651L1468 657Q1319 321 1221 201Q1042-18 770-18Q703-18 619-2Q520 17 481 47L453-31L414-10L442 72Q344 138 292 267Q246 381 246 512Q246 719 370 951Q486 1168 655 1311Q849 1475 1081 1475Q1269 1475 1383 1372Q1503 1265 1503 1079Q1503 882 1336 718.50Q1169 555 971 555Q823 555 684 659M1034 905Q1123 905 1183 969.50Q1243 1034 1243 1124Q1243 1209 1173.50 1268Q1104 1327 1018 1327Q799 1327 637 1109Q489 909 489 682Q489 494 561 426Q670 715 815 1167Q825 905 1034 905Z"  horiz-adv-x="1343" vert-adv-y="2150"  />

      
      <glyph glyph-name="uni44" unicode="&#x44;" d="M309 66L276-33L236-35L459 553L496 553Q467 500 467 449Q467 405 510 370.50Q553 336 598 336Q641 336 682 380Q715 418 731 465Q879 917 879 924Q879 980 813 979Q911 1090 1028 1090Q1100 1090 1139 1040Q1068 1038 1036 938L848 350Q846 344 846 339Q846 295 909 295Q1087 295 1212 424.50Q1337 554 1337 733Q1337 930 1191 1058Q1051 1180 850 1180Q731 1180 634 1120Q522 1051 522 940Q522 862 559 813Q600 758 676 758Q687 758 731 770Q696 627 545 627Q395 627 300 719Q205 811 205 961Q205 1196 372 1339Q531 1475 770 1475Q1065 1475 1274 1291Q1493 1099 1493 807Q1493 480 1264 228Q1029-31 705-31Q607-31 498-9Q364 19 309 66Z"  horiz-adv-x="1376" vert-adv-y="2150"  />

      
      <glyph glyph-name="uni45" unicode="&#x45;" d="M651 926Q643 975 643 1022Q643 1215 757 1340Q874 1470 1065 1470Q1175 1470 1258 1430Q1329 1396 1417 1313L1231 774L1192 780Q1219 831 1219 895Q1219 991 1168 1059Q1111 1133 1018 1133Q950 1133 894.50 1078Q839 1023 834 954Q926 954 1008 914Q1110 865 1110 784Q1110 714 1055 676Q1007 643 934 643Q858 643 787 693Q719 740 684 811Q613 795 560.50 724.50Q508 654 508 580Q508 457 618 381Q715 313 844 313Q1074 313 1278 496Q1442 643 1475 760L1509 748L1223-27L1182-23L1204 78Q1140 30 1024-2Q915-33 827-33Q414-33 287 240Q242 337 242 426Q242 502 272 584Q320 716 420 799Q501 865 651 926M952 739Q1020 739 1020 795Q1020 846 948 862Q894 870 840 877L840 864Q840 812 870.50 775.50Q901 739 952 739Z"  horiz-adv-x="1368" vert-adv-y="2150"  />

      
      <glyph glyph-name="uni48" unicode="&#x48;" d="M803 520L784 508Q748 551 682.50 581.50Q617 612 561 612Q478 612 414 552Q350 492 350 410Q350 332 410 278.50Q470 225 549 225Q659 225 758 305.50Q857 386 887 494L1047 1067Q932 1067 827 1090L829 1090Q757 1087 727 1047Q695 1004 631 842L600 840L788 1401Q904 1444 987 1444Q1026 1444 1101.50 1431.50Q1177 1419 1214 1419Q1264 1419 1366 1468Q1301 1393 1214 1200Q1132 1016 1110 909Q1103 874 1079 784L979 406Q864-27 467-27Q277-27 147 76Q6 188 6 373Q6 530 127 642Q248 754 406 754Q659 754 803 520M1786 1466Q1905 1466 1970.50 1400.50Q2036 1335 2036 1217Q2036 1102 1950 1028Q1868 958 1751 958Q1653 958 1610 1016Q1624 1010 1638 1010Q1669 1010 1692.50 1030.50Q1716 1051 1716 1081Q1716 1141 1638 1141Q1541 1141 1464 874Q1439 795 1414 716Q1384 612 1384 551Q1384 479 1415 431Q1452 375 1520 375Q1605 375 1689 485Q1763 582 1778 676L1810 670L1571-27L1534-20L1589 160Q1455-14 1339-14Q1267-14 1218 31Q1169 76 1169 147Q1169 197 1196 287L1477 1223Q1550 1466 1786 1466M1075 578L1149 797Q1196 820 1243 842Q1298 870 1321 909L1260 752Q1239 699 1217.50 679.50Q1196 660 1137 639L1075 578Z"  horiz-adv-x="1737" vert-adv-y="2150"  />

      
      <glyph glyph-name="uni49" unicode="&#x49;" d="M1053 457Q1074 486 1100 563L1251 1016Q1164 1020 1008 1075Q997 1079 987 1079Q911 1079 813 881L793 889L981 1397Q1135 1464 1196 1464Q1240 1464 1321 1424Q1402 1384 1446 1384Q1524 1384 1583 1442L1597 1409Q1482 1312 1421 1112L1227 479Q1196 378 1161 293Q1174 231 1174 160Q1174 139 1171-35L1135-35Q1135 147 1128 238Q913-25 612-25Q397-25 241 68Q55 180 55 381Q55 557 173 654Q282 745 461 745Q638 745 787 664Q901 602 1053 457M631 578Q551 578 495 539Q432 494 432 418Q432 331 517 283Q587 244 682 244Q895 244 1004 395Q945 472 836.50 525Q728 578 631 578Z"  horiz-adv-x="1268" vert-adv-y="2150"  />

      
      <glyph glyph-name="uni4b" unicode="&#x4b;" d="M844 483L834 465Q768 545 722 572Q664 606 569 606Q483 606 421 561Q352 510 352 428Q352 338 439 283Q514 236 610 236Q746 236 865 357Q966 459 1018 604L1190 1079Q1146 1061 1081 1061Q1049 1061 993 1076.50Q937 1092 918 1092Q833 1092 786 1013Q776 998 725 862L690 862L870 1409Q964 1425 1040 1425Q1085 1425 1173.50 1407Q1262 1389 1307 1389Q1354 1389 1401 1415Q1454 1443 1464 1485L1497 1485L1430 1368Q1343 1216 1212 750L1245 780Q1299 922 1430 1165Q1593 1468 1853 1468Q1975 1468 2053.50 1387.50Q2132 1307 2132 1186Q2132 1072 2056 996Q1980 920 1866 920Q1671 920 1632 1096Q1643 1094 1657 1094Q1737 1094 1737 1153Q1737 1214 1661 1214Q1542 1214 1425 1060Q1384 1006 1270 803Q1413 924 1491 924Q1532 924 1558.50 893.50Q1585 863 1585 821Q1585 763 1548 632.50Q1511 502 1511 461Q1511 423 1538.50 392.50Q1566 362 1604 362Q1703 362 1772 448Q1796 478 1870 618L1903 612L1655-20L1624-12L1665 102Q1554-8 1430-8Q1345-8 1292 37Q1235 85 1235 168Q1235 205 1291 376Q1327 486 1364 596Q1397 700 1397 721Q1397 780 1343 780Q1283 780 1210 653Q1186 610 1124 469Q1067 339 1010 256Q920 125 793 49Q655-33 506-33Q198-33 70 152Q0 253 0 360Q0 442 39 526Q144 752 438 752Q569 752 679 676Q783 605 844 483Z"  horiz-adv-x="1778" vert-adv-y="2150"  />

      
      <glyph glyph-name="uni4d" unicode="&#x4d;" d="M860 819L1071 1366Q1245 1456 1397 1456Q1541 1456 1605 1399Q1673 1338 1673 1196Q1673 1145 1661 1096Q1759 1292 1815 1354Q1918 1470 2079 1470Q2117 1470 2191.50 1465Q2266 1460 2304 1460Q2328 1460 2370 1478Q2412 1496 2433 1497L2435 1495L2435 1491Q2426 1474 2413 1444L2413 1442Q2283 1139 2206 1139Q2179 1139 2125 1142Q2071 1145 2044 1145Q1814 1145 1737 1081Q1634 995 1559 717L1393 100Q1383 64 1505-6L1061-4Q1145 16 1182 43Q1228 78 1251 152L1432 739Q1468 856 1468 954Q1468 1112 1307 1112Q1162 1112 1059 1027Q980 962 897 817L860 819M2107 1092Q1996 1018 1970 924L1888 633Q1870 569 1870 518Q1870 481 1910 450Q1947 422 1985 422Q2058 422 2122 519Q2150 561 2202 680L2228 678L1993-12L1956-14L1982 84Q1878 4 1819 4Q1647 4 1647 152Q1647 198 1671 283L1851 918Q1877 1012 1945 1049Q1989 1073 2107 1092M864 420Q838 506 762.50 559Q687 612 596 612Q492 612 415 557Q330 495 330 395Q330 298 404 237Q473 180 573 180Q698 180 805 242Q919 308 963 420L1049 637Q1102 771 1102 831Q1102 888 1055 897Q1078 948 1141 994Q1208 1042 1262 1042Q1284 1042 1309 1036Q1274 1008 1253 949Q1239 899 1225 848Q1177 682 1129 515Q1056 292 975 195Q787-29 506-29Q298-29 162 66Q6 175 6 375Q6 542 136 654Q261 762 430 762Q588 762 713 670Q848 572 864 420Z"  horiz-adv-x="2097" vert-adv-y="2150"  />

      
      <glyph glyph-name="uni4f" unicode="&#x4f;" d="M1405 1075Q1386 1105 1366 1145Q1275 1327 1047 1327Q803 1327 637 1146Q475 970 475 723Q475 567 547 479L637 700Q637 723 634 767.50Q631 812 631 834Q631 920 690 1022Q811 1231 1022 1231Q1227 1231 1352 1097Q1473 967 1473 760Q1473 444 1271 217Q1062-20 750-20Q610-20 455 68L414-35L373-23L414 92Q300 199 262.50 286.50Q225 374 225 532Q225 686 303 874Q411 1134 605 1298Q822 1481 1083 1481Q1304 1481 1415 1356Q1485 1277 1485 1210Q1485 1139 1405 1075M872 319Q1060 319 1192.50 451.50Q1325 584 1325 772Q1325 909 1248 1005Q1165 1110 1032 1110Q893 1110 805 969Q874 1012 961 1012Q1057 1012 1118.50 944Q1180 876 1180 780Q1180 665 1103 580Q1023 492 909 492Q841 492 765 540Q693 586 655 647L582 446Q614 391 711 353Q797 319 872 319M901 766Q931 766 953 790Q975 814 975 844Q975 922 877 922Q809 922 809 862Q809 826 837.50 796Q866 766 901 766Z"  horiz-adv-x="1352" vert-adv-y="2150"  />

      
      <glyph glyph-name="uni50" unicode="&#x50;" d="M1028 553Q1067 629 1077 709Q995 752 958 821Q1003 812 1094 797Q1114 879 1114 915Q1114 968 1059 975Q1133 1085 1241 1085Q1279 1085 1323 1067Q1268 1014 1243 942Q1235 919 1208 797Q1403 801 1403 979Q1403 1135 1206 1135Q931 1135 651 840L612 844L827 1354Q1016 1470 1233 1470Q1409 1470 1522 1379Q1645 1280 1645 1108Q1645 878 1440 752Q1367 707 1188 686Q1178 621 1114 469Q1204 319 1204 190Q1204 80 1176-29L1133-31Q1163 68 1163 176Q1163 322 1090 408Q906-33 479-33Q292-33 157 72Q10 186 10 367Q10 565 141 683Q267 797 466 797Q625 797 770 727Q877 675 1028 553M621 655Q530 655 496 641Q350 581 350 438Q350 246 600 246Q726 246 836 316Q950 387 997 502Q930 569 823.50 612Q717 655 621 655Z"  horiz-adv-x="1458" vert-adv-y="2150"  />

      
      <glyph glyph-name="uni55" unicode="&#x55;" d="M418 393Q459 346 565 346Q850 346 913 567L1126 1317Q1144 1381 1210 1420Q1270 1456 1341 1456Q1360 1456 1382 1452Q1258 1404 1198 1147L1057 547Q1053 530 1053 485Q1053 448 1079.50 421.50Q1106 395 1143 395Q1207 395 1268 485Q1285 510 1346 631L1378 627L1167 6L1124 4Q1131 41 1155 111Q1092-6 971-6L512-6Q402-6 339 71Q281 142 281 254Q281 357 317 455L508 975Q508 1010 455 1020Q434 1022 393 1028Q367 1032 305 1058Q247 1083 231 1083Q182 1083 136 1004Q130 993 80 881L61 889L248 1397Q370 1466 465 1466Q502 1466 581.50 1425Q661 1384 709 1384Q735 1384 779.50 1400Q824 1416 842 1434L860 1409Q789 1351 729 1196L418 393Z"  horiz-adv-x="1262" vert-adv-y="2150"  />

      
      <glyph glyph-name="uni58" unicode="&#x58;" d="M520-27Q326-27 184 87Q31 210 31 399Q31 552 136 664Q241 776 393 776Q578 776 678 713Q784 648 852 481L831 475Q737 635 588 635Q501 635 443 587Q381 535 381 449Q381 361 456 301Q525 246 616 246Q773 246 898.50 356.50Q1024 467 1051 623Q1035 633 1006 633Q946 633 903 565L903 580Q903 668 949 731Q999 801 1083 807Q1090 852 1090 870Q1090 989 1008.50 1065Q927 1141 807 1141Q542 1141 463 893L434 893L596 1395Q784 1462 858 1462Q1219 1462 1219 1063Q1368 1470 1688 1470Q1782 1470 1844 1419Q1911 1364 1911 1272Q1911 1169 1845 1105.50Q1779 1042 1675 1042Q1624 1042 1589 1057Q1608 1085 1608 1118Q1608 1190 1528 1190Q1426 1190 1326 1047Q1241 925 1219 807Q1233 803 1249 803Q1298 803 1335 827Q1354 839 1403 887L1327 731Q1299 673 1271.50 653Q1244 633 1178 621Q1163 537 1163 520Q1163 444 1210 399Q1257 354 1333 354Q1416 354 1489 421Q1559 485 1579 569L1606 569L1427-29L1395-27L1409 80Q1358 22 1319 3Q1276-18 1202-18Q1131-18 1076.50 33Q1022 84 1022 154Q1022 210 1038 297Q1060 411 1063 438Q1050 405 991 289Q908 126 807 54Q695-27 520-27Z"  horiz-adv-x="1565" vert-adv-y="2150"  />

      
      <glyph glyph-name="uni59" unicode="&#x59;" d="M1231 639Q1151 532 1067 532Q976 532 911 599Q850 664 834 790Q826 894 818 999Q803 1109 743 1149Q741 1160 709 1169Q683 1176 668 1176Q591 1176 540 1141Q483 1100 483 1026Q483 866 651 866Q715 866 774 928Q748 850 650 797Q560 748 471 748Q336 748 239 852Q145 953 145 1090Q145 1192 223 1290Q352 1452 608 1452Q775 1452 884 1349Q993 1246 993 1081Q993 1051 987 991Q981 931 981 901Q981 659 1130 659Q1229 659 1308 868Q1378 1062 1447 1257Q1542 1466 1679 1466Q1731 1466 1794 1434L1659 1049Q1614 1110 1581 1110Q1551 1110 1528 1079Q1505 1048 1329 563Q1238 311 1167 213Q1056 60 852-2Q793-20 682-20Q580-20 475 24Q428 43 287 121L229-35L190-33L408 590Q466 470 591.50 388.50Q717 307 848 307Q986 307 1093 408Q1190 499 1231 639Z"  horiz-adv-x="1352" vert-adv-y="2150"  />

      
      <glyph glyph-name="uni5b" unicode="&#x5b;" d="M209-117Q209-136 362-139Q372-139 526-137L506-186L-27-186Q629 1458 631 1608L1149 1608L1128 1559Q1059 1561 1004 1561Q831 1561 831 1534L209-117Z"  horiz-adv-x="530" vert-adv-y="2150"  />

      
      <glyph glyph-name="uni5c" unicode="&#x5c;" d="M1085 14Q1046 53 1006 147L465 1417Q414 1397 362 1397Q305 1397 258 1419Q331 1359 360 1288L883 18Q928 45 981 45Q1036 45 1085 14Z"  horiz-adv-x="1047" vert-adv-y="2150"  />

      
      <glyph glyph-name="uni5d" unicode="&#x5d;" d="M887 1538Q887 1558 733 1561Q724 1561 569 1559L590 1608L1122 1608Q467-49 465-186L-53-186L-33-137Q37-139 92-139Q264-139 264-113L887 1538Z"  horiz-adv-x="825" vert-adv-y="2150"  />

      
      <glyph glyph-name="uni5e" unicode="&#x5e;" d="M1022 625L844 625L584 1169L326 625L147 625L504 1356L664 1356L1022 625Z"  horiz-adv-x="1165" vert-adv-y="2150"  />

      
      <glyph glyph-name="uni5f" unicode="&#x5f;" d="M1065-395L0-395L0-209L1065-209L1065-395Z"  horiz-adv-x="1065" vert-adv-y="2150"  />

      
      <glyph glyph-name="uni60" unicode="&#x60;" d="M430 1225Q430 1200 389 1200Q304 1200 172 1283Q31 1372 31 1450Q31 1483 68 1481Q133 1477 133 1477Q144 1477 166 1479Q188 1481 199 1481Q234 1481 260 1442L301 1380Q308 1369 372 1297Q430 1232 430 1225Z"  horiz-adv-x="608" vert-adv-y="2150"  />

      
      <glyph glyph-name="uni61" unicode="&#x61;" d="M995 774L680 614Q657 637 604 637Q512 637 442 532Q379 437 379 340Q379 285 413.50 246Q448 207 502 207Q601 207 669 321Q727 420 727 524Q727 557 711 590L995 731Q952 611 909 492Q836 285 836 248Q836 209 879 209Q913 209 983 326L1004 322Q952 214 901 106Q827-23 719-23Q614-23 614 102Q614 159 629 205Q534 80 518 62Q437-25 369-25Q286-25 230 40Q176 102 176 186Q176 416 356 637Q545 870 768 870Q934 870 995 774Z"  horiz-adv-x="932" vert-adv-y="2150"  />

      
      <glyph glyph-name="uni62" unicode="&#x62;" d="M453 332Q453 227 586 227Q668 227 737.50 295.50Q807 364 807 446Q807 557 698 557Q592 557 555 455L537 459L651 766Q721 778 760 778Q854 778 913.50 723Q973 668 973 575L973 530Q973 345 836 170Q690-16 512-16Q244-16 244 203Q244 384 541 1126Q586 1240 682 1303Q768 1360 891 1360Q1135 1360 1135 1126Q1135 1001 1036.50 906Q938 811 813 811Q758 811 715 851Q672 891 670 946Q727 864 805 864Q849 864 882 930Q909 985 909 1034Q909 1080 880 1113.50Q851 1147 805 1147Q771 1147 742 1120.50Q713 1094 696 1049Q632 879 469 412Q453 366 453 332Z"  horiz-adv-x="924" vert-adv-y="2150"  />

      
      <glyph glyph-name="uni63" unicode="&#x63;" d="M635 465Q658 471 676 497Q694 523 694 547Q694 592 660 620Q629 645 582 645Q493 645 429 580Q365 515 365 426Q365 341 444 281Q516 225 604 225Q694 225 771 281Q845 335 881 420L907 420Q833-23 502-23Q370-23 292 81Q221 175 221 311Q221 514 336 682Q464 870 657 870Q757 870 829 810Q905 746 905 649Q905 554 848 499Q791 444 696 444Q666 444 635 465Z"  horiz-adv-x="852" vert-adv-y="2150"  />

      
      <glyph glyph-name="uni65" unicode="&#x65;" d="M416 475Q471 393 551 393Q609 393 657 439Q705 485 705 543Q705 599 662 635Q622 668 565 668Q480 668 417 578Q360 497 360 408Q360 312 434 246Q505 182 602 182Q707 182 811.50 262.50Q916 343 950 444L977 438Q958 377 872 229Q729-18 520-18Q384-18 296 84Q213 181 213 319Q213 470 295 604Q374 733 508 811Q606 868 686 868Q930 868 930 635Q930 511 831 415Q732 319 608 319Q539 319 482 362Q420 409 416 475Z"  horiz-adv-x="852" vert-adv-y="2150"  />

      
      <glyph glyph-name="uni67" unicode="&#x67;" d="M776 870Q946 870 989 772L719 608Q686 645 637 645Q535 645 451 513Q375 395 375 285Q375 233 409.50 199.50Q444 166 496 166Q592 166 678 299Q756 421 756 524Q756 553 739 582L1008 739L741-121Q679-321 573-414Q455-516 254-516Q146-516 58-465Q-45-405-45-305Q-45-220 34-161Q107-106 195-106Q280-106 338-144Q382-174 440-252L422-270Q375-209 285-209Q180-209 180-313Q180-403 285-403Q385-403 445-334Q489-285 528-174Q561-88 593-1Q638 122 641 172Q532 41 519 29Q442-43 354-43Q178-43 178 178Q178 423 340 625Q537 870 776 870Z"  horiz-adv-x="924" vert-adv-y="2150"  />

      
      <glyph glyph-name="uni69" unicode="&#x69;" d="M506 1098Q506 1150 543 1192.50Q580 1235 631 1235Q681 1235 712 1203Q743 1171 743 1120Q743 987 608 987Q506 987 506 1098M391 784Q391 843 385 856Q440 852 496 852Q602 852 680 864Q668 836 635 786Q618 761 588 676L471 348Q449 286 449 248Q449 197 485 197Q510 197 553 251Q579 289 606 326L621 322Q580 211 511 108Q417-31 338-31Q283-31 246 8Q209 47 209 102Q209 169 238 260L375 690Q391 740 391 784Z"  horiz-adv-x="565" vert-adv-y="2150"  />

      
      <glyph glyph-name="uni6d" unicode="&#x6d;" d="M115-18Q193 70 255 231Q300 365 346 500Q371 572 371 594Q371 639 324 639Q283 639 225 526L203 532Q337 862 485 862Q606 862 606 723Q606 647 575 606Q692 754 705 767Q795 860 879 860Q991 860 991 741Q991 664 971 614Q1149 864 1260 864Q1386 864 1386 756Q1386 683 1329 516Q1289 406 1249 297Q1237 262 1237 256Q1237 211 1282 211Q1325 211 1364 330L1386 324Q1284-16 1116-16Q1069-16 1032 14Q995 44 995 90Q995 124 1060 313Q1102 431 1143 549Q1147 561 1147 580Q1147 643 1094 643Q1020 643 961 537Q936 493 891 365Q863 293 835 221Q799 120 799 68Q799 33 813-10Q748-2 684-2Q606-2 528-23Q579 45 647 228Q689 350 731 473Q762 559 762 586Q762 643 711 643Q616 643 508 389Q410 161 410 47Q410 14 422-18Q336-6 250-6Q213-6 115-18Z"  horiz-adv-x="1337" vert-adv-y="2150"  />

      
      <glyph glyph-name="uni6e" unicode="&#x6e;" d="M121-16Q177 62 284 319Q387 565 387 606Q387 659 340 659Q299 659 242 532L225 541Q268 652 332 743Q422 870 504 870Q625 870 625 760Q625 731 608 621Q613 631 631 657Q719 781 736 798Q805 870 889 870Q1022 870 1022 737Q1022 676 945 491Q868 306 868 256Q868 215 903 215Q954 215 991 330L1016 322L926 127Q860-16 745-16Q631-16 631 94Q631 159 714 366Q797 573 797 614Q797 640 776 659Q755 678 729 678Q641 678 517 400Q403 145 403 41Q403 12 414-18Q340 2 276 2Q236 2 121-16Z"  horiz-adv-x="973" vert-adv-y="2150"  />

      
      <glyph glyph-name="uni6f" unicode="&#x6f;" d="M657 854Q416 662 416 430Q416 342 459 279Q508 207 592 207Q698 207 760 301Q815 383 815 494Q815 641 674 641Q622 641 571 600.50Q520 560 504 510L467 504Q524 707 711 862Q737 870 741 870Q845 870 910 756Q965 659 965 547Q965 340 851 168Q722-27 526-27Q390-27 301 74Q215 171 215 309Q215 598 446 764Q560 846 657 854Z"  horiz-adv-x="901" vert-adv-y="2150"  />

      
      <glyph glyph-name="uni70" unicode="&#x70;" d="M551-20Q444-20 375 61L475 328Q512 258 524 242Q559 197 606 197Q710 197 777 297Q836 385 836 494Q836 664 698 664Q526 664 366 239Q243-88 213-352Q209-386 203-494Q57-475 18-475Q-49-475-115-492Q60-232 229 250Q358 617 358 709Q358 811 258 838Q375 838 602 885Q569 788 506 596Q619 773 619 773Q697 870 793 870Q911 870 966 754Q1008 666 1008 532Q1008 343 876 168Q734-20 551-20Z"  horiz-adv-x="918" vert-adv-y="2150"  />

      
      <glyph glyph-name="uni75" unicode="&#x75;" d="M383-23Q332-23 296 10.50Q260 44 260 94Q260 163 371 483Q401 569 401 592Q401 637 362 637Q326 637 270 520L244 520Q253 560 279 616Q332 732 367 777Q433 862 520 862Q641 862 641 737Q641 661 571.50 487.50Q502 314 502 258Q502 195 557 195Q691 195 788 575Q836 764 836 791Q836 831 817 870Q887 850 963 850Q1073 850 1116 877Q1056 771 1004 610Q963 471 922 332Q899 257 899 238Q899 199 928 199Q973 199 1024 322L1057 319Q999 191 992 176Q944 77 915 45Q863-12 786-12Q672-12 672 129Q672 207 686 250Q578 84 494 11Q453-23 383-23Z"  horiz-adv-x="1024" vert-adv-y="2150"  />

      
      <glyph glyph-name="uni78" unicode="&#x78;" d="M358 272Q335 272 314 251.50Q293 231 293 209Q293 162 340 162Q392 162 453 258Q499 329 524 403L516 403Q432 403 387 346Q423 445 427 452Q460 514 514 514Q556 514 569 510Q586 553 586 588Q586 670 508 670Q442 670 395 626Q380 611 317 528L285 530Q354 640 423 749Q521 874 631 874Q686 874 723 840Q760 806 760 752Q760 725 752 688Q892 885 1001 885Q1061 885 1104 844Q1147 803 1147 743Q1147 668 1077 617Q1013 571 936 571Q889 571 850 596Q915 625 915 662Q915 698 868 698Q791 698 715 510Q735 502 782 502Q829 502 879 524Q838 444 776 395L676 395Q655 356 655 309Q655 215 748 215Q827 215 892.50 264Q958 313 973 389L1004 389Q950 242 867 132Q754-18 637-18Q483-18 481 211Q463 166 418 103Q366 31 327 7Q280-23 199-23Q141-23 105 24Q72 67 72 127Q72 211 122 263Q172 315 256 315Q317 315 358 272Z"  horiz-adv-x="975" vert-adv-y="2150"  />

      
      <glyph glyph-name="uni79" unicode="&#x79;" d="M381-281Q348-250 299-250Q223-250 223-317Q223-397 324-397Q385-397 440-324Q499-245 647 252Q567 123 523 73Q433-29 344-29Q294-29 256.50 7.50Q219 44 219 94Q219 179 287.50 355Q356 531 356 590Q356 629 317 629Q291 629 242 512L213 512Q340 879 481 879Q594 879 594 760Q594 685 489 354Q471 297 471 281Q471 225 522 225Q612 225 707 458Q791 664 791 772Q791 827 754 881Q842 852 895 852Q993 852 1100 887Q1047 846 1008 754Q993 719 956 598Q833 200 727-121Q600-504 281-504Q173-504 98-459Q8-406 8-305Q8-224 65-170.50Q122-117 203-117Q268-117 322-152Q385-191 385-252Q385-266 381-281Z"  horiz-adv-x="911" vert-adv-y="2150"  />

      
      <glyph glyph-name="uni7a" unicode="&#x7a;" d="M344 291L365 367Q565 390 565 500Q565 550 524 584Q483 618 432 618Q347 618 276 573Q201 524 180 446L158 444L293 803Q375 868 530 868Q793 868 793 641Q793 553 710 459Q631 370 543 344Q648 304 674 287Q726 252 757 175Q782 112 782 57Q782-179 597-350Q417-516 180-516Q68-516-20-467Q-127-408-127-305Q-127-220-48-161Q25-106 113-106Q198-106 256-144Q300-174 358-252L340-270Q293-209 203-209Q98-209 98-313Q98-403 203-403Q230-403 297-359Q404-290 469-182Q537-68 537 53Q537 171 497 219.50Q457 268 344 291Z"  horiz-adv-x="754" vert-adv-y="2150"  />

      
      <glyph glyph-name="uni7b" unicode="&#x7b;" d="M180-186L713-186L733-137Q571-131 416-113Q509 141 702 645Q713 673 713 670Q713 688 592 762Q641 780 690 797Q767 827 776 844Q777 846 784 864L1040 1534Q1040 1563 1337 1559L1358 1608L840 1608Q839 1524 734 1234Q644 984 582 856Q556 803 311 762Q514 729 514 682Q514 644 180-186Z"  horiz-adv-x="737" vert-adv-y="2150"  />

      
      <glyph glyph-name="uni7c" unicode="&#x7c;" d="M338 14Q361 53 362 147L375 1417Q434 1397 487 1397Q545 1397 582 1419Q532 1360 532 1288L539 18Q481 45 430 45Q373 45 338 14Z"  horiz-adv-x="596" vert-adv-y="2150"  />

      
      <glyph glyph-name="uni7d" unicode="&#x7d;" d="M1047 1608L514 1608L494 1559Q653 1552 811 1534Q711 1273 514 752Q516 732 635 659Q580 641 525 623Q456 595 442 557L186-113Q186-141-111-137L-131-186L387-186Q387-99 492 188Q580 429 645 565Q670 618 915 659Q713 692 713 739Q713 775 1047 1608Z"  horiz-adv-x="885" vert-adv-y="2150"  />

      
      <glyph glyph-name="uni7e" unicode="&#x7e;" d="M834 422Q774 422 657.50 449.50Q541 477 481 477Q490 465 500 444Q488 437 484 417Q481 401 463 401Q435 401 396.50 438.50Q358 476 358 506Q358 637 424 637Q426 637 440 635L813 582L817 586Q786 614 786 631Q786 639 799 645Q799 674 825 674Q864 674 900 623Q934 576 934 535Q934 422 834 422Z"  horiz-adv-x="725" vert-adv-y="2150"  />

      
      <glyph glyph-name="uni2020" unicode="&#x2020;" d="M1538 881L1153 881L670-326L475-326L958 881L573 881L637 1038L1022 1038L1194 1470L1389 1470L1217 1038L1602 1038L1538 881Z"  horiz-adv-x="1139" vert-adv-y="2150"  />

      
      <glyph glyph-name="unib0" unicode="&#xb0;" d="M1116 1139Q1116 1005 1022.50 912Q929 819 795 819Q663 819 568 913Q473 1007 473 1139Q473 1278 563.50 1368Q654 1458 793 1458Q929 1458 1022.50 1366.50Q1116 1275 1116 1139M1028 1139Q1028 1244 954 1309Q884 1372 778 1372Q683 1372 623 1303.50Q563 1235 563 1139Q563 1041 630 973Q697 905 795 905Q892 905 960 973.50Q1028 1042 1028 1139Z"  horiz-adv-x="852" vert-adv-y="2150"  />

      
      <glyph glyph-name="unia7" unicode="&#xa7;" d="M1141 1094L1133 1102Q1151 1137 1170 1172Q1196 1222 1196 1239Q1196 1274 1116 1274Q1044 1274 990 1239Q928 1198 928 1130Q928 1079 1003.50 949Q1079 819 1079 719Q1079 552 930 342Q887 282 712 191Q597 135 481 80Q508-21 508-75Q508-145 492-184Q448-288 304.50-386.50Q161-485 49-485Q-25-485-89-436Q-158-384-158-313Q-158-290-56-229Q46-168 78-168Q90-168 90-176Q90-189 82-214.50Q74-240 74-254Q74-295 94-330Q117-371 154-371Q237-371 282-302Q319-244 319-157Q319-115 307-70L229 219Q229 383 294 486Q345 567 494 684Q555 732 721 805Q776 829 772 842Q729 994 729 1026Q729 1074 745 1112Q779 1192 927 1282Q1075 1372 1165 1372Q1374 1372 1374 1292Q1374 1253 1277 1183Q1209 1138 1141 1094M848 571Q848 754 741 754Q622 754 543 624Q475 512 475 385Q475 199 567 199Q636 199 715 272Q786 336 817 408Q848 480 848 571Z"  horiz-adv-x="885" vert-adv-y="2150"  />

      
      <glyph glyph-name="uni2022" unicode="&#x2022;" d="M670 848Q670 773 561 689Q457 608 379 608Q338 608 305 634Q272 660 272 700Q272 790 367 875Q459 958 551 958Q601 958 635.50 927.50Q670 897 670 848Z"  horiz-adv-x="528" vert-adv-y="2150"  />

      
      <glyph glyph-name="unib6" unicode="&#xb6;" d="M1141-352L987-352L987 1346L750 1346L750-352L596-352L596 705Q406 705 286 803Q158 908 158 1094Q158 1279 292 1380Q412 1470 604 1470L1141 1470L1141-352Z"  horiz-adv-x="1100" vert-adv-y="2150"  />

      
      <glyph glyph-name="uniae" unicode="&#xae;" d="M961 43Q671 43 472.50 241Q274 439 274 729Q274 1020 472 1217.50Q670 1415 961 1415Q1252 1415 1449.50 1217.50Q1647 1020 1647 729Q1647 439 1449 241Q1251 43 961 43M958 1335Q701 1335 526.50 1159.50Q352 984 352 727Q352 470 528 295.50Q704 121 961 121Q1217 121 1393 297Q1569 473 1569 729Q1569 984 1391.50 1159.50Q1214 1335 958 1335M774 760L870 1028Q977 1092 1112 1092Q1204 1092 1264 1053Q1335 1007 1335 920Q1335 835 1255 780Q1186 732 1096 727Q1115 712 1116 664Q1114 758 1114 596Q1114 539 1155 539Q1201 539 1230 583Q1251 624 1272 666L1284 664L1184 360L1163 362L1163 397Q1139 356 1092 356Q1064 356 1043 378Q1022 400 1022 428Q1022 457 1052.50 545.50Q1083 634 1083 674Q1083 709 1053 721L1059 743Q1104 745 1143 774Q1186 806 1186 848Q1186 944 1075 944Q940 944 852 842Q833 815 793 762L774 760M887 590L877 580Q836 668 741 668Q694 668 660 642Q623 614 623 569Q623 521 667 494Q705 471 756 471Q888 471 936 629Q952 676 968 723Q987 781 987 819Q987 854 956 858Q1038 909 1083 909Q1088 909 1118 903Q1060 891 1020 745Q965 542 932 483Q853 346 698 346Q604 346 536 395Q461 450 461 541Q461 623 519 681Q577 739 659 739Q734 739 797.50 699Q861 659 887 590Z"  horiz-adv-x="1501" vert-adv-y="2150"  />

      
      <glyph glyph-name="unia9" unicode="&#xa9;" d="M963 1425Q1253 1425 1451 1227Q1649 1029 1649 739Q1649 450 1450.50 250.50Q1252 51 963 51Q674 51 475 250Q276 449 276 739Q276 1030 474 1227.50Q672 1425 963 1425M963 131Q1219 131 1395 307Q1571 483 1571 739Q1571 995 1395 1170.50Q1219 1346 963 1346Q708 1346 531 1170Q354 994 354 739Q354 481 529.50 306Q705 131 963 131M858 690L811 559Q858 510 965 510Q1048 510 1122.50 559.50Q1197 609 1231 686L1251 690Q1177 524 1126 462Q1035 352 901 352Q791 352 758 385L743 346L723 356L737 397Q639 463 639 616Q639 781 764 935Q895 1098 1057 1098Q1144 1098 1204 1050Q1268 999 1268 913Q1268 804 1188.50 721.50Q1109 639 1001 639Q928 639 858 690M1032 813Q1078 813 1107.50 845.50Q1137 878 1137 924Q1137 967 1103.50 995.50Q1070 1024 1026 1024Q916 1024 836 916Q762 816 762 702Q762 608 797 573Q852 719 924 944Q928 813 1032 813Z"  horiz-adv-x="1501" vert-adv-y="2150"  />

      
      <glyph glyph-name="uni2122" unicode="&#x2122;" d="M608 1028L702 1303Q782 1346 872 1346Q905 1346 971.50 1329.50Q1038 1313 1071 1313Q1092 1313 1122 1362L1137 1362Q1108 1295 1079 1228Q1034 1143 979 1143Q951 1143 893.50 1155Q836 1167 807 1167Q664 1167 623 1028L608 1028M748 856Q755 871 774 947.50Q793 1024 793 1040Q793 1063 766 1083Q834 1141 885 1141Q899 1141 915 1139Q875 1114 845 987Q823 891 801 795Q827 737 827 678Q827 625 817 588L803 588Q811 655 811 670Q811 729 784 766Q745 691 669 642.50Q593 594 510 594Q410 594 339 641Q258 695 258 791Q258 879 324 931Q385 979 477 979Q625 979 748 856M553 905Q506 905 471 881Q430 853 430 809Q430 719 553 719Q611 719 662.50 750Q714 781 733 834Q666 905 553 905M1311 1022L1415 1296Q1503 1341 1579 1341Q1716 1341 1716 1210Q1716 1186 1710 1161Q1770 1270 1791 1292Q1842 1348 1929 1348Q1946 1348 1980.50 1344.50Q2015 1341 2032 1341Q2044 1341 2064 1349Q2090 1358 2097 1360L2097 1358L2087 1335L2087 1333Q2023 1182 1982 1182Q1969 1182 1942.50 1184Q1916 1186 1903 1186Q1782 1186 1733 1137Q1693 1098 1659 971L1577 664Q1572 646 1632 610L1411 610Q1487 629 1505 688L1595 983Q1614 1045 1614 1090Q1614 1169 1534 1169Q1415 1169 1329 1022L1311 1022M1933 1159Q1882 1125 1858 1058Q1842 994 1825 930Q1815 895 1815 872Q1815 823 1872 823Q1925 823 1980 952L1995 952L1876 606L1858 606L1872 655Q1819 614 1790 614Q1704 614 1704 684Q1704 712 1716 754L1806 1071Q1825 1137 1933 1159M1313 823Q1282 920 1178 920Q1125 920 1087 892Q1044 862 1044 811Q1044 763 1081 732.50Q1118 702 1167 702Q1269 702 1325 771Q1357 809 1405 932Q1432 1001 1432 1028Q1432 1055 1407 1061Q1420 1087 1451.50 1111Q1483 1135 1511 1135Q1522 1135 1534 1130Q1509 1110 1471 963Q1428 798 1375 721Q1288 598 1133 598Q1030 598 961 647Q883 702 883 801Q883 887 947 942Q1008 993 1096 993Q1176 993 1238 948Q1305 900 1313 823Z"  horiz-adv-x="1849" vert-adv-y="2150"  />

      
      <glyph glyph-name="unib1" unicode="&#xb1;" d="M1436 752L930 752L737 248L618 248L811 752L307 752L350 868L854 868L1047 1374L1165 1374L973 868L1479 868L1436 752M1149 0L20 0L66 119L1194 119L1149 0Z"  horiz-adv-x="1169" vert-adv-y="2150"  />

      
      <glyph glyph-name="uniac" unicode="&#xac;" d="M1632 0L1513 0L1513 496L217 496L217 614L1632 614L1632 0Z"  horiz-adv-x="1520" vert-adv-y="2150"  />

      
      <glyph glyph-name="uniab" unicode="&#xab;" d="M1253 913L1171 733L885 567L1026 401L944 219L735 475L817 662L1253 913M608 401L524 219L317 475L399 662L836 915L752 733L467 567L608 401Z"  horiz-adv-x="1139" vert-adv-y="2150"  />

      
      <glyph glyph-name="unibb" unicode="&#xbb;" d="M1049 473L618 219L694 401L979 567L836 733L911 915L1128 662L1049 473M629 473L199 219L274 401L559 567L416 733L492 915L709 662L629 473Z"  horiz-adv-x="1139" vert-adv-y="2150"  />

      
      <glyph glyph-name="uni2026" unicode="&#x2026;" d="M1800 215Q1800 153 1736 77Q1669-2 1608-2Q1548-2 1548 47Q1548 110 1619 185Q1690 260 1753 260Q1800 260 1800 215M1159 215Q1159 153 1095 77Q1028-2 967-2Q907-2 907 47Q907 110 978 185Q1049 260 1112 260Q1159 260 1159 215M518 215Q518 153 454 77Q387-2 326-2Q266-2 266 47Q266 110 337.50 185Q409 260 471 260Q518 260 518 215Z"  horiz-adv-x="1923" vert-adv-y="2150"  />

      
      <glyph glyph-name="uni2013" unicode="&#x2013;" d="M158 502L158 717L1105 717L1105 502L158 502Z"  horiz-adv-x="1067" vert-adv-y="2150"  />

      
      <glyph glyph-name="uni2014" unicode="&#x2014;" d="M158 502L158 717L1305 717L1305 502L158 502Z"  horiz-adv-x="1067" vert-adv-y="2150"  />

      
      <glyph glyph-name="uni201C" unicode="&#x201C;" d="M1067 1425Q879 1298 879 1194Q879 1170 913 1157Q963 1139 977 1125Q1012 1093 1012 1022Q1012 966 979 928Q944 887 889 887Q752 887 752 1034Q752 1154 844 1280Q930 1397 1044 1456L1067 1425M760 1425Q571 1298 571 1194Q571 1170 606 1157Q655 1139 670 1125Q705 1093 705 1022Q705 966 672 928Q637 887 582 887Q444 887 444 1034Q444 1154 537 1280Q623 1397 737 1456L760 1425Z"  horiz-adv-x="788" vert-adv-y="2150"  />

      
      <glyph glyph-name="uni201D" unicode="&#x201D;" d="M444 918Q633 1044 633 1149Q633 1174 598 1186Q549 1202 534 1216Q500 1247 500 1321Q500 1376 533.50 1416Q567 1456 621 1456Q760 1456 760 1309Q760 1190 667 1063Q580 945 467 887L444 918M752 918Q940 1044 940 1149Q940 1174 905 1186Q856 1203 841 1216Q807 1248 807 1321Q807 1376 840.50 1416Q874 1456 928 1456Q1067 1456 1067 1309Q1067 1190 974 1063Q887 945 774 887L752 918Z"  horiz-adv-x="788" vert-adv-y="2150"  />

      
      <glyph glyph-name="uni2018" unicode="&#x2018;" d="M707 1466L733 1434Q672 1403 612 1335Q543 1259 543 1202Q543 1181 578 1167Q627 1147 643 1132Q678 1099 678 1032Q678 975 642.50 935Q607 895 551 895Q416 895 416 1042Q416 1159 510 1287Q595 1403 707 1466Z"  horiz-adv-x="446" vert-adv-y="2150"  />

      
      <glyph glyph-name="uni2019" unicode="&#x2019;" d="M444 918Q633 1044 633 1149Q633 1174 598 1186Q549 1202 534 1216Q500 1247 500 1321Q500 1376 533.50 1416Q567 1456 621 1456Q760 1456 760 1309Q760 1190 667 1063Q580 945 467 887L444 918Z"  horiz-adv-x="446" vert-adv-y="2150"  />

      
      <glyph glyph-name="unia4" unicode="&#xa4;" d="M1382 287L1280 182L1171 291Q1040 184 870 184Q692 184 561 291L453 182L348 287L457 395Q358 528 358 690Q358 877 459 993L348 1104L453 1210L563 1098Q688 1202 872 1202Q1042 1202 1167 1102L1276 1210L1380 1104L1270 997Q1376 874 1376 694Q1376 518 1274 395L1382 287M1210 694Q1210 837 1112.50 936.50Q1015 1036 872 1036Q723 1036 623.50 937.50Q524 839 524 690Q524 546 625 448Q726 350 870 350Q1014 350 1112 450Q1210 550 1210 694Z"  horiz-adv-x="1270" vert-adv-y="2150"  />

      
      <glyph glyph-name="uni2039" unicode="&#x2039;" d="M508 219L293 475L371 662L799 913L725 733L440 567L584 401L508 219Z"  horiz-adv-x="682" vert-adv-y="2150"  />

      
      <glyph glyph-name="uni203A" unicode="&#x203A;" d="M610 473L182 219L256 401L541 567L393 733L467 915L686 662L610 473Z"  horiz-adv-x="682" vert-adv-y="2150"  />

      
      <glyph glyph-name="uni2021" unicode="&#x2021;" d="M1221 88L836 88L666-326L471-326L641 88L256 88L322 246L707 246L975 897L590 897L653 1055L1038 1055L1210 1470L1405 1470L1233 1055L1618 1055L1554 897L1169 897L901 246L1286 246L1221 88Z"  horiz-adv-x="1139" vert-adv-y="2150"  />

      
      <glyph glyph-name="unib7" unicode="&#xb7;" d="M559 608Q559 546 495 470Q428 391 367 391Q307 391 307 440Q307 503 378.50 578Q450 653 512 653Q559 653 559 608Z"  horiz-adv-x="641" vert-adv-y="2150"  />

      
      <glyph glyph-name="uni2219" unicode="&#x2219;" d="M559 608Q559 546 495 470Q428 391 367 391Q307 391 307 440Q307 503 378.50 578Q450 653 512 653Q559 653 559 608Z"  horiz-adv-x="641" vert-adv-y="2150"  />

      
      <glyph glyph-name="uni201A" unicode="&#x201A;" d="M84-305L123-209Q237-191 317 0L209 0L299 217L516 217Q404-52 368-107Q265-266 84-305Z"  horiz-adv-x="455" vert-adv-y="2150"  />

      
      <glyph glyph-name="uni201E" unicode="&#x201E;" d="M354-305L391-209Q515-186 580 0L473 0L559 217L774 217Q661-62 633-107Q533-266 354-305M14-305L53-207Q170-193 244 0L133 0L219 217L436 217Q334-46 295-108Q193-268 14-305Z"  horiz-adv-x="682" vert-adv-y="2150"  />

      
      <glyph glyph-name="uni2030" unicode="&#x2030;" d="M358 805Q358 996 477 1212Q613 1458 786 1458Q904 1458 967 1375Q1022 1300 1022 1178Q1022 977 907 772Q774 535 590 535Q475 535 413 615Q358 687 358 805M1149 240Q1149 434 1269 650Q1405 897 1581 897Q1691 897 1755 821Q1815 749 1815 637Q1815 426 1706 219Q1577-25 1386-25Q1271-25 1208 51Q1149 122 1149 240M598 0L1458 1436L1563 1436L694 0L598 0M1448 193Q1554 193 1625 298Q1688 392 1688 504Q1688 581 1645 627.50Q1602 674 1526 674Q1421 674 1345 572Q1276 478 1276 369Q1276 291 1323 242Q1370 193 1448 193M655 754Q755 754 828 848Q895 935 895 1038Q895 1233 733 1233Q624 1233 550 1133Q483 1042 483 928Q483 852 531 803Q579 754 655 754M1825 240Q1825 434 1945 650Q2081 897 2257 897Q2368 897 2431 821Q2490 750 2490 637Q2490 425 2381 219Q2253-25 2062-25Q1947-25 1884 51Q1825 122 1825 240M2124 193Q2231 193 2301 298Q2363 391 2363 504Q2363 580 2320 627Q2277 674 2202 674Q2096 674 2021 572Q1952 479 1952 369Q1952 291 1999 242Q2046 193 2124 193Z"  horiz-adv-x="2423" vert-adv-y="2150"  />

      
      <glyph glyph-name="unia6" unicode="&#xa6;" d="M737 942L584 942L811 1509L965 1509L737 942M344-39L190-39L432 565L586 565L344-39Z"  horiz-adv-x="532" vert-adv-y="2150"  />

      
      <glyph glyph-name="uniad" unicode="&#xad;" d="M229 496Q303 614 334 721Q551 700 623 700Q629 700 963 727Q887 639 872 500Q741 516 606 516Q387 516 229 496Z"  horiz-adv-x="805" vert-adv-y="2150"  />

      
      <glyph glyph-name="uni2212" unicode="&#x2212;" d="M229 496Q303 614 334 721Q551 700 623 700Q629 700 963 727Q887 639 872 500Q741 516 606 516Q387 516 229 496Z"  horiz-adv-x="805" vert-adv-y="2150"  />

      
      <glyph glyph-name="uni0409" unicode="&#x0409;" d="M1100 473Q1116 524 1116 590Q1116 713 999 774L731 913Q612 975 612 1128Q612 1278 732 1378Q846 1473 999 1473Q1122 1473 1339 1384Q1354 1394 1384 1413L1413 1399L1253 922L1223 926Q1229 950 1229 977Q1229 1069 1152 1147Q1075 1225 983 1225Q925 1225 888.50 1187.50Q852 1150 852 1092Q852 1032 906 985Q916 976 1010 915Q1197 794 1243 711Q1284 637 1284 522Q1284 406 1219 291Q1241 199 1241 123Q1241 70 1229-25L1194-27Q1206 23 1206 104Q1206 180 1186 242Q947-23 631-23Q395-23 250 133Q143 248 143 367Q143 540 275 644Q397 739 575 739Q913 739 1100 473M723 602Q636 602 570 566Q489 522 489 442Q489 344 569 289Q639 240 741 240Q840 240 931 294Q1022 348 1071 434Q1020 504 916.50 553Q813 602 723 602M1294 1919Q1294 1905 1256 1869Q1231 1846 1206 1823L1063 1669Q1041 1645 999 1645Q957 1645 924 1677Q905 1699 866 1743Q815 1800 729 1882Q702 1908 702 1919Q702 1937 729 1937Q778 1937 872 1889Q960 1844 999 1804Q1187 1937 1268 1937Q1294 1937 1294 1919Z"  horiz-adv-x="1274" vert-adv-y="2150"  />

      
      <glyph glyph-name="uni040F" unicode="&#x040F;" d="M1335 1128L1266 797Q1460 801 1460 979Q1460 1104 1335 1128M1085 553Q1124 629 1135 709Q1053 752 1016 821Q1061 812 1151 797Q1159 835 1221 1133Q959 1111 709 840L670 844L885 1354Q1074 1470 1288 1470Q1319 1628 1319 1638Q1319 1691 1264 1698Q1339 1808 1448 1808Q1487 1808 1528 1790Q1467 1732 1440 1636Q1423 1548 1405 1460Q1538 1437 1620 1339.50Q1702 1242 1702 1108Q1702 878 1497 752Q1424 707 1245 686Q1235 621 1171 469Q1262 317 1262 190Q1262 83 1233-29L1190-31Q1221 68 1221 176Q1221 322 1147 408Q963-33 537-33Q349-33 215 71Q68 185 68 367Q68 564 198 683Q324 797 523 797Q681 797 826 727Q938 673 1085 553M678 655Q587 655 553 641Q408 582 408 438Q408 246 657 246Q785 246 895 316Q1005 386 1055 502Q986 570 880.50 612.50Q775 655 678 655Z"  horiz-adv-x="1475" vert-adv-y="2150"  />

      
      <glyph glyph-name="uni0459" unicode="&#x0459;" d="M477 297Q395 293 389 291Q344 280 344 231Q344 158 477 158Q533 158 575.50 195.50Q618 233 618 289Q618 342 514 417Q446 460 377.50 504.50Q309 549 309 621Q309 748 401 813Q482 870 614 870Q720 870 795 831Q889 782 889 686Q889 622 844.50 582.50Q800 543 735 543Q670 543 563 614Q578 610 598 610Q676 610 676 657Q676 707 590 707Q494 707 494 621Q494 586 592 520Q658 477 725 434Q793 383 793 268Q793 125 690 48Q598-20 451-20Q129-20 129 207Q129 279 178 328Q227 377 299 377Q410 377 477 297M907 1260Q907 1249 869 1211Q844 1187 819 1163L676 1010Q653 985 612 985Q576 985 543 1020Q315 1260 315 1260Q315 1278 342 1278Q391 1278 485 1230Q576 1185 612 1145Q788 1278 881 1278Q907 1278 907 1260Z"  horiz-adv-x="768" vert-adv-y="2150"  />

      
      <glyph glyph-name="uni045F" unicode="&#x045F;" d="M199 313Q332 313 332 158Q332 149 330 145L309 145Q309 209 268 209Q250 209 223 153Q188 79 158 48Q104-8 20-8Q-92-8-92 115Q-92 245-53 346L-16 360Q-39 299-39 264Q-39 219-2 219Q14 219 73.50 266Q133 313 199 313M385 872Q424 872 473 838Q552 785 543 672L537 596Q600 787 633 885Q748 862 811 862Q834 862 880.50 866Q927 870 950 870Q837 842 795 741L625 328Q549 139 549 78Q549 35 580 4Q549-4 526-4Q508-4 473 2Q438 8 420 8Q401 8 362.50 2Q324-4 305-4Q283-4 258 4Q307 37 332 78Q335 83 345 112Q395 224 483 451Q494 484 494 526Q494 580 467 617Q437 657 385 657Q320 657 274 594Q233 536 233 469Q233 439 246 411Q263 377 291 377Q370 377 455 459Q432 404 376 364Q320 324 262 324Q167 324 102 385.50Q37 447 37 541Q37 591 55 639Q143 872 385 872Z"  horiz-adv-x="1106" vert-adv-y="2150"  />

      
      <glyph glyph-name="uni040E" unicode="&#x040E;" d="M1231 639Q1151 532 1067 532Q976 532 911 599Q850 664 834 790Q826 894 818 999Q803 1109 743 1149Q741 1160 709 1169Q683 1176 668 1176Q591 1176 540 1141Q483 1100 483 1026Q483 866 651 866Q715 866 774 928Q748 850 650 797Q560 748 471 748Q336 748 239 852Q145 953 145 1090Q145 1192 223 1290Q352 1452 608 1452Q775 1452 884 1349Q993 1246 993 1081Q993 1051 987 991Q981 931 981 901Q981 659 1130 659Q1229 659 1308 868Q1378 1062 1447 1257Q1542 1466 1679 1466Q1731 1466 1794 1434L1659 1049Q1614 1110 1581 1110Q1551 1110 1528 1079Q1505 1048 1329 563Q1238 311 1167 213Q1056 60 852-2Q793-20 682-20Q580-20 475 24Q428 43 287 121L229-35L190-33L408 590Q466 470 591.50 388.50Q717 307 848 307Q986 307 1093 408Q1190 499 1231 639M1180 1540Q1225 1540 1270 1552Q1335 1569 1335 1602Q1335 1627 1284 1672Q1233 1717 1233 1755Q1233 1790 1271 1811Q1303 1829 1341 1829Q1408 1829 1467 1778Q1526 1727 1526 1661Q1526 1624 1497 1583Q1450 1516 1355 1494Q1297 1481 1180 1481Q1061 1481 1003 1494Q906 1516 858 1583Q829 1623 829 1661Q829 1726 890 1779Q948 1829 1014 1829Q1053 1829 1084 1811Q1122 1790 1122 1755Q1122 1717 1071 1672Q1020 1627 1020 1602Q1020 1569 1087 1552Q1134 1540 1180 1540Z"  horiz-adv-x="1352" vert-adv-y="2150"  />

      
      <glyph glyph-name="uni045E" unicode="&#x045E;" d="M381-281Q348-250 299-250Q223-250 223-317Q223-397 324-397Q385-397 440-324Q499-245 647 252Q567 123 523 73Q433-29 344-29Q294-29 256.50 7.50Q219 44 219 94Q219 179 287.50 355Q356 531 356 590Q356 629 317 629Q291 629 242 512L213 512Q340 879 481 879Q594 879 594 760Q594 685 489 354Q471 297 471 281Q471 225 522 225Q612 225 707 459Q791 664 791 772Q791 827 754 881Q842 852 895 852Q993 852 1100 887Q1047 846 1008 754Q993 719 956 598Q833 200 727-121Q600-504 281-504Q173-504 98-459Q8-406 8-305Q8-224 65-170.50Q122-117 203-117Q268-117 322-152Q385-191 385-252Q385-266 381-281M745 977Q856 977 856 1020Q856 1039 819 1071Q782 1103 782 1130Q782 1184 860 1184Q908 1184 950.50 1148Q993 1112 993 1065Q993 1036 973 1008Q918 932 745 932Q494 932 494 1063Q494 1112 535.50 1148Q577 1184 627 1184Q702 1184 702 1130Q702 1103 666.50 1071Q631 1039 631 1020Q631 977 745 977Z"  horiz-adv-x="911" vert-adv-y="2150"  />

      
      <glyph glyph-name="uni0490" unicode="&#x0490;" d="M756 848L946 1397Q1100 1481 1284 1481Q1351 1481 1491.50 1448Q1632 1415 1686 1415Q1716 1415 1745 1453Q1745 1453 1784 1516L1812 1516Q1755 1381 1698 1247Q1611 1077 1501 1077Q1451 1077 1337 1100.50Q1223 1124 1155 1124Q868 1124 786 846L756 848M1036 502Q1059 565 1091 688Q1126 826 1126 872Q1126 915 1073 958Q1210 1073 1311 1073Q1339 1073 1370 1067Q1291 1019 1260 874L1202 604Q1171 458 1143 381Q1194 264 1194 145Q1194 39 1176-35L1145-35Q1161 100 1161 129Q1161 248 1110 322Q1081 269 1030 209Q926 89 822 35Q710-23 559-23Q366-23 220 76Q55 188 55 373Q55 552 190 655Q313 748 498 748Q634 748 788 674Q932 605 1036 502M647 600Q552 600 482 554Q401 501 401 410Q401 227 645 227Q756 227 861 290Q974 357 1008 457Q872 600 647 600Z"  horiz-adv-x="1325" vert-adv-y="2150"  />

      
      <glyph glyph-name="uni0401" unicode="&#x0401;" d="M651 926Q643 975 643 1022Q643 1215 757 1340Q874 1470 1065 1470Q1175 1470 1258 1430Q1329 1396 1417 1313L1231 774L1192 780Q1219 831 1219 895Q1219 991 1168 1059Q1111 1133 1018 1133Q950 1133 894.50 1078Q839 1023 834 954Q926 954 1008 914Q1110 865 1110 784Q1110 714 1055 676Q1007 643 934 643Q858 643 787 693Q719 740 684 811Q613 795 560.50 724.50Q508 654 508 580Q508 457 618 381Q715 313 844 313Q1074 313 1278 496Q1442 643 1475 760L1509 748L1223-27L1182-23L1204 78Q1140 30 1024-2Q915-33 827-33Q414-33 287 240Q242 337 242 426Q242 502 272 584Q320 716 420 799Q501 865 651 926M952 739Q840 739 840 877Q894 870 948 862Q1020 846 1020 795Q1020 739 952 739M1372 1743Q1372 1640 1251 1640Q1124 1640 1124 1743Q1124 1841 1251 1841Q1372 1841 1372 1743M1030 1743Q1030 1640 903 1640Q782 1640 782 1743Q782 1841 903 1841Q1030 1841 1030 1743Z"  horiz-adv-x="1368" vert-adv-y="2150"  />

      
      <glyph glyph-name="uni0404" unicode="&#x0404;" d="M578 551Q578 615 608 690Q712 951 971 1004L838 608L799 608Q834 711 834 733L834 737Q830 745 815 745Q759 745 679 673Q611 612 578 551M272 547Q272 916 573 1198Q868 1475 1239 1475Q1530 1475 1692 1313L1538 821L1511 829Q1532 921 1532 946Q1532 955 1518 997Q1364 1184 1087 1184Q846 1184 649 1019Q442 845 442 608Q442 457 558 354Q671 254 823 254Q1003 254 1128 321Q1286 405 1286 571Q1286 686 1174 686Q1163 686 1114 674Q1190 817 1341 817Q1454 817 1526 762Q1604 701 1604 590Q1604 486 1540 365Q1482 257 1397 176Q1179-31 874-31Q630-31 453 135Q272 305 272 547Z"  horiz-adv-x="1532" vert-adv-y="2150"  />

      
      <glyph glyph-name="uni0407" unicode="&#x0407;" d="M1053 457Q1074 486 1100 563L1251 1016Q1164 1020 1008 1075Q997 1079 987 1079Q911 1079 813 881L793 889L981 1397Q1135 1464 1196 1464Q1240 1464 1321 1424Q1402 1384 1446 1384Q1524 1384 1583 1442L1597 1409Q1482 1312 1421 1112L1227 479Q1196 378 1161 293Q1174 231 1174 160Q1174 139 1171-35L1135-35Q1135 147 1128 238Q913-25 612-25Q397-25 241 68Q55 180 55 381Q55 557 173 654Q282 745 461 745Q638 745 787 664Q901 602 1053 457M631 578Q551 578 495 539Q432 494 432 418Q432 331 517 283Q587 244 682 244Q895 244 1004 395Q945 472 836.50 525Q728 578 631 578M1626 1743Q1626 1640 1505 1640Q1378 1640 1378 1743Q1378 1841 1505 1841Q1626 1841 1626 1743M1284 1743Q1284 1640 1157 1640Q1036 1640 1036 1743Q1036 1841 1157 1841Q1284 1841 1284 1743Z"  horiz-adv-x="1323" vert-adv-y="2150"  />

      
      <glyph glyph-name="uni0406" unicode="&#x0406;" d="M1053 457Q1074 486 1100 563L1251 1016Q1164 1020 1008 1075Q997 1079 987 1079Q911 1079 813 881L793 889L981 1397Q1135 1464 1196 1464Q1240 1464 1321 1424Q1402 1384 1446 1384Q1524 1384 1583 1442L1597 1409Q1482 1312 1421 1112L1227 479Q1196 378 1161 293Q1174 231 1174 160Q1174 139 1171-35L1135-35Q1135 147 1128 238Q913-25 612-25Q397-25 241 68Q55 180 55 381Q55 557 173 654Q282 745 461 745Q638 745 787 664Q901 602 1053 457M631 578Q551 578 495 539Q432 494 432 418Q432 331 517 283Q587 244 682 244Q895 244 1004 395Q945 472 836.50 525Q728 578 631 578M1526 1743Q1526 1640 1405 1640Q1278 1640 1278 1743Q1278 1841 1405 1841Q1526 1841 1526 1743Z"  horiz-adv-x="1323" vert-adv-y="2150"  />

      
      <glyph glyph-name="uni0456" unicode="&#x0456;" d="M506 1098Q506 1150 543 1192.50Q580 1235 631 1235Q681 1235 712 1203Q743 1171 743 1120Q743 987 608 987Q506 987 506 1098M391 784Q391 843 385 856Q440 852 496 852Q602 852 680 864Q668 836 635 786Q618 761 588 676L471 348Q449 286 449 248Q449 197 485 197Q510 197 553 251Q579 289 606 326L621 322Q580 211 511 108Q417-31 338-31Q283-31 246 8Q209 47 209 102Q209 169 238 260L375 690Q391 740 391 784Z"  horiz-adv-x="565" vert-adv-y="2150"  />

      
      <glyph glyph-name="uni0491" unicode="&#x0491;" d="M926 788Q926 746 886 707Q828 650 659 641Q594 637 537 483Q432 199 432 98Q432 39 469-14Q401 4 328 4Q276 4 106-18Q193 68 268 254Q330 406 362 563L362 567Q362 618 319 618Q280 618 247 565Q217 517 217 475L180 479Q203 546 233 608Q307 760 316 773Q379 868 463 868Q480 868 517 861Q554 854 573 854Q713 854 713 922Q713 963 637 1016L651 1016Q758 1016 838 957Q926 891 926 788Z"  horiz-adv-x="680" vert-adv-y="2150"  />

      
      <glyph glyph-name="uni0451" unicode="&#x0451;" d="M416 475Q471 393 551 393Q609 393 657 439Q705 485 705 543Q705 599 662 635Q622 668 565 668Q480 668 417 578Q360 497 360 408Q360 312 434 246Q505 182 602 182Q707 182 811.50 262.50Q916 343 950 444L977 438Q958 377 872 229Q729-18 520-18Q384-18 296 84Q213 181 213 319Q213 470 295 604Q374 734 508 811Q606 868 686 868Q930 868 930 635Q930 511 831 415Q732 319 608 319Q539 319 482 362Q420 409 416 475M1028 1083Q1028 981 907 981Q780 981 780 1083Q780 1182 907 1182Q1028 1182 1028 1083M686 1083Q686 981 559 981Q438 981 438 1083Q438 1182 559 1182Q686 1182 686 1083Z"  horiz-adv-x="852" vert-adv-y="2150"  />

      
      <glyph glyph-name="uni0454" unicode="&#x0454;" d="M362 281Q404 491 588 535L510 315L489 315Q498 343 508 383L504 389L500 389Q451 389 362 281M322 352Q322 284 365.50 243.50Q409 203 477 203Q534 203 578 233Q627 267 627 322Q627 373 592 383Q631 403 662 403Q811 403 811 281Q811 158 699 65Q592-23 467-23Q329-23 256 80Q193 170 193 315Q193 522 315 688Q449 870 649 870Q760 870 829.50 799.50Q899 729 899 618Q899 524 881 428L854 428Q849 515 792.50 569Q736 623 649 623Q588 623 547 615Q452 598 387 522.50Q322 447 322 352Z"  horiz-adv-x="852" vert-adv-y="2150"  />

      
      <glyph glyph-name="uni0457" unicode="&#x0457;" d="M864 1083Q864 981 743 981Q616 981 616 1083Q616 1182 743 1182Q864 1182 864 1083M522 1083Q522 981 395 981Q274 981 274 1083Q274 1182 395 1182Q522 1182 522 1083M391 784Q391 843 385 856Q440 852 496 852Q602 852 680 864Q668 836 635 786Q618 761 588 676L471 348Q449 286 449 248Q449 197 485 197Q510 197 553 251Q579 289 606 326L621 322Q580 211 511 108Q417-31 338-31Q283-31 246 8Q209 47 209 102Q209 169 238 260L375 690Q391 740 391 784Z"  horiz-adv-x="647" vert-adv-y="2150"  />

      
      <glyph glyph-name="uni0410" unicode="&#x0410;" d="M752 788L973 1366Q1147 1475 1350 1475Q1366 1475 1414 1459Q1565 1406 1565 1251Q1565 1181 1534 1061L1401 547Q1397 532 1397 485Q1397 448 1423.50 421.50Q1450 395 1487 395Q1551 395 1612 485Q1629 510 1690 631L1722 627L1511 6L1468 4Q1479 49 1499 111Q1397 4 1343 4Q1274 4 1229 49Q1184 94 1184 162Q1184 187 1192 221L1376 1001Q1378 1009 1378 1018Q1378 1077 1313 1114Q1257 1147 1194 1147Q1049 1147 941 1028Q889 970 784 786L752 788M754 428Q637 559 526 559Q449 559 396 521Q336 477 336 403Q336 217 520 217Q699 217 797 349Q867 444 913 645Q940 764 940 784Q940 816 893 815Q899 847 934 907Q1007 1034 1157 1034Q1185 1034 1198 1032Q1148 1002 1120 965Q1085 919 965 469Q909 261 828 156Q724 22 536-13Q500-20 453-20Q93-20 20 215Q0 280 0 322Q0 480 121 582Q235 678 395 678Q509 678 616 609Q731 534 754 428M995 422Q1037 560 1074 618Q1139 721 1243 721L1198 549Q1051 549 995 422Z"  horiz-adv-x="1565" vert-adv-y="2150"  />

      
      <glyph glyph-name="uni0411" unicode="&#x0411;" d="M1788 1491L1817 1491Q1760 1357 1703 1224Q1619 1058 1505 1053Q1377 1047 1376 1047Q1265 1047 1048.50 1085.50Q832 1124 721 1124Q436 1124 352 846L322 848L512 1397Q668 1481 850 1481Q900 1481 1082 1449Q1434 1389 1608 1389Q1702 1389 1722 1401Q1738 1411 1788 1491M918 721Q1121 631 1143 436Q1119 514 1032.50 581.50Q946 649 866 649Q762 649 685 594Q600 532 600 432Q600 324 694 260Q776 205 889 205Q1074 205 1199 295Q1341 397 1341 575Q1341 660 1271.50 719Q1202 778 1116 778Q1026 778 918 721M688 819L573 799L596 858Q593 880 589 902Q584 928 557 928Q547 928 539 922Q643 1055 760 1055Q811 1055 850 1038Q759 967 688 819M285 391Q285 559 415 671Q539 778 709 778Q752 778 770 774Q950 926 1180 926Q1367 926 1482 823Q1602 715 1602 530Q1602 390 1499 248Q1288-43 864-43Q594-43 459 37Q285 139 285 391Z"  horiz-adv-x="1606" vert-adv-y="2150"  />

      
      <glyph glyph-name="uni0412" unicode="&#x0412;" d="M594 776L809 1358Q1011 1468 1253 1468Q1425 1468 1546 1377Q1679 1276 1679 1110Q1679 964 1572 862Q1503 796 1337 713Q1441 692 1506 600Q1567 514 1567 406Q1567 245 1461 121Q1350-10 1192-10Q1137-10 973 41L956-31L918-33L1079 526L1118 520Q1108 473 1108 438Q1108 305 1243 305Q1307 305 1348 374Q1382 432 1382 502Q1382 570 1337 621Q1292 672 1225 672Q1169 672 1120 635L1161 756Q1188 733 1219 733Q1257 733 1315 772Q1415 840 1415 961Q1415 1045 1339 1096Q1273 1141 1184 1141Q1008 1141 860 1030Q747 946 627 774L594 776M821 451Q729 588 561 588Q476 588 414 539Q346 485 346 403Q346 320 412 276Q468 238 555 238Q718 238 819 377Q880 460 950 662Q1001 810 1001 881Q1001 928 967 928Q956 928 948 922Q1053 1055 1169 1055Q1221 1055 1260 1038Q1172 973 1139 903.50Q1106 834 1077 719Q1001 423 957 329Q865 135 680 41Q551-25 401-25Q244-25 126 72Q0 175 0 328Q0 498 134 608Q259 711 434 711Q717 711 821 451Z"  horiz-adv-x="1559" vert-adv-y="2150"  />

      
      <glyph glyph-name="uni0413" unicode="&#x0413;" d="M756 848L946 1397Q1100 1481 1284 1481Q1355 1481 1508 1443Q1653 1406 1733 1411L1747 1412Q1759 1421 1786 1434Q1736 1321 1687 1208Q1612 1077 1501 1077Q1443 1077 1328.50 1100.50Q1214 1124 1155 1124Q868 1124 786 846L756 848M1036 502Q1061 570 1091 688Q1126 823 1126 872Q1126 916 1073 958Q1210 1073 1311 1073Q1339 1073 1370 1067Q1291 1018 1260 874L1202 604Q1171 459 1143 381Q1194 264 1194 145Q1194 40 1176-35L1145-35Q1161 97 1161 129Q1161 248 1110 322Q1081 268 1030 209Q830-23 559-23Q366-23 220 76Q55 189 55 373Q55 552 191 655Q313 748 498 748Q634 748 789 674Q932 606 1036 502M647 600Q552 600 482 554Q401 501 401 410Q401 227 645 227Q756 227 861 290Q974 357 1008 457Q871 600 647 600Z"  horiz-adv-x="1325" vert-adv-y="2150"  />

      
      <glyph glyph-name="uni0414" unicode="&#x0414;" d="M309 66L276-33L236-35L459 553L496 553Q467 500 467 449Q467 405 510 370.50Q553 336 598 336Q641 336 682 380Q715 418 731 465Q879 917 879 924Q879 980 813 979Q911 1090 1028 1090Q1100 1090 1139 1040Q1068 1038 1036 938L848 350Q846 344 846 339Q846 295 909 295Q1087 295 1212 424.50Q1337 554 1337 733Q1337 930 1191 1058Q1051 1180 850 1180Q731 1180 634 1120Q522 1051 522 940Q522 862 559 813Q600 758 676 758Q687 758 731 770Q696 627 545 627Q395 627 300 719Q205 811 205 961Q205 1196 372 1339Q531 1475 770 1475Q1065 1475 1274 1291Q1493 1099 1493 807Q1493 480 1264 228Q1029-31 705-31Q607-31 498-9Q364 19 309 66Z"  horiz-adv-x="1376" vert-adv-y="2150"  />

      
      <glyph glyph-name="uni0415" unicode="&#x0415;" d="M651 926Q643 975 643 1022Q643 1215 757 1340Q874 1470 1065 1470Q1175 1470 1258 1430Q1329 1396 1417 1313L1231 774L1192 780Q1219 831 1219 895Q1219 991 1168 1059Q1111 1133 1018 1133Q950 1133 894.50 1078Q839 1023 834 954Q926 954 1008 914Q1110 865 1110 784Q1110 714 1055 676Q1007 643 934 643Q858 643 787 693Q719 740 684 811Q613 795 560.50 724.50Q508 654 508 580Q508 457 618 381Q715 313 844 313Q1074 313 1278 496Q1442 643 1475 760L1509 748L1223-27L1182-23L1204 78Q1140 30 1024-2Q915-33 827-33Q414-33 287 240Q242 337 242 426Q242 502 272 584Q320 716 420 799Q501 865 651 926M952 739Q1020 739 1020 795Q1020 846 948 862Q894 870 840 877L840 864Q840 812 870.50 775.50Q901 739 952 739Z"  horiz-adv-x="1368" vert-adv-y="2150"  />

      
      <glyph glyph-name="uni0416" unicode="&#x0416;" d="M590 614Q495 614 425 555Q352 492 352 399Q352 309 436 255Q509 209 604 209Q829 209 1026 399Q957 501 835 559Q719 614 590 614M2583 1470Q2677 1470 2739 1419Q2806 1364 2806 1272Q2806 1169 2740 1105.50Q2674 1042 2570 1042Q2519 1042 2484 1057Q2503 1085 2503 1118Q2503 1190 2423 1190Q2277 1190 2159 922Q2058 693 2058 520Q2058 444 2105 399Q2152 354 2228 354Q2311 354 2384 421Q2454 485 2474 569L2501 569L2322-29L2290-27L2304 80Q2253 22 2214 3Q2171-18 2097-18Q1988-18 1945 66Q1936 96 1917 154Q1894 224 1894 309Q1894 394 1909 469Q1744-16 1565-16Q1498-16 1454 47Q1415 104 1415 174Q1415 210 1454 342L1634 950Q1586 825 1406 592Q1244 382 1122 268Q1130 205 1130 182Q1130 82 1090-25L1059-20Q1094 96 1094 162Q1094 198 1085 231Q966 112 758 16Q665-27 520-27Q336-27 175 91Q0 220 0 397Q0 574 134 682Q258 782 440 782Q853 782 1053 428Q1117 501 1167 621Q1221 748 1221 838Q1221 1114 999 1114Q903 1114 819 1021Q751 944 715 838L686 840L895 1386Q988 1452 1106 1452Q1255 1452 1342 1370Q1432 1285 1432 1137Q1432 878 1286 584Q1281 572 1270 549Q1384 653 1501 799Q1646 977 1675 1081L1726 1262Q1755 1358 1858 1413Q1938 1456 1972 1456Q1980 1456 1980 1448Q1882 1372 1860 1286L1688 627Q1665 539 1665 502Q1665 463 1691 433Q1717 403 1755 403Q1870 403 1962 680Q2101 1101 2154 1193Q2310 1470 2583 1470Z"  horiz-adv-x="2376" vert-adv-y="2150"  />

      
      <glyph glyph-name="uni0417" unicode="&#x0417;" d="M842 504L819 496Q774 541 702 541Q646 541 601.50 502Q557 463 557 408Q557 349 620 303Q678 260 739 260Q863 260 959 346Q1059 435 1059 559Q1059 752 782 752L791 799Q1036 824 1036 963Q1036 1025 984 1068Q935 1108 872 1108Q770 1108 682 1051Q588 991 563 897L535 895L702 1335Q803 1415 993 1415Q1317 1415 1317 1137Q1317 1053 1254 964Q1194 880 1114 842Q1076 821 999 780Q1150 723 1197 672Q1257 605 1257 457Q1257 238 1076 101Q910-23 684-23Q518-23 386 81Q244 192 244 353Q244 493 316 582Q394 678 530 678Q729 678 842 504Z"  horiz-adv-x="1262" vert-adv-y="2150"  />

      
      <glyph glyph-name="uni0418" unicode="&#x0418;" d="M418 393Q459 346 565 346Q850 346 913 567L1126 1317Q1144 1381 1210 1420Q1270 1456 1341 1456Q1360 1456 1382 1452Q1258 1404 1198 1147L1057 547Q1053 530 1053 485Q1053 448 1079.50 421.50Q1106 395 1143 395Q1207 395 1268 485Q1285 510 1346 631L1378 627L1167 6L1124 4Q1131 41 1155 111Q1092-6 971-6L512-6Q402-6 339 71Q281 142 281 254Q281 357 317 455L508 975Q508 1010 455 1020Q434 1022 393 1028Q367 1032 305 1058Q247 1083 231 1083Q182 1083 136 1004Q130 993 80 881L61 889L248 1397Q370 1466 465 1466Q502 1466 581.50 1425Q661 1384 709 1384Q735 1384 779.50 1400Q824 1416 842 1434L860 1409Q789 1351 729 1196L418 393Z"  horiz-adv-x="1262" vert-adv-y="2150"  />

      
      <glyph glyph-name="uni0419" unicode="&#x0419;" d="M698 416Q686 422 674 422Q621 422 621 365Q621 302 675 267Q721 236 788 236Q922 236 1075 420Q1184 551 1257 774L1411 1245Q1485 1473 1686 1473Q1733 1473 1788 1458L1632 991L1599 997Q1620 1038 1620 1106Q1620 1147 1577 1147Q1514 1147 1458 954L1346 571Q1335 533 1335 500Q1335 454 1360 420Q1388 381 1432 381Q1490 381 1555 467Q1605 534 1634 608L1667 606L1452-16L1407-14L1438 68Q1356-14 1266-14Q1133-14 1133 147Q1133 226 1161 349Q1194 501 1200 549Q1135 426 1070 303Q985 150 902 74Q791-27 653-27Q520-27 427 53Q330 137 330 268Q330 371 388 438Q450 508 551 508Q637 508 698 416M926 952Q926 1078 841 1148Q762 1212 633 1212Q550 1212 495 1165Q436 1116 436 1034Q436 949 496 897Q552 848 639 848Q778 848 819 952L850 944Q814 844 730.50 785.50Q647 727 541 727Q370 727 257 812Q131 905 131 1071Q131 1252 280 1359Q413 1454 600 1454Q789 1454 919 1358Q1063 1252 1063 1069Q1063 939 1008 747Q1001 721 907 436Q900 416 950 369Q893 295 803 295Q729 295 694 365Q758 381 782 453L901 811Q902 815 914 881Q926 947 926 952M1221 1540Q1266 1540 1311 1552Q1376 1569 1376 1602Q1376 1627 1325 1672Q1274 1717 1274 1755Q1274 1790 1312 1811Q1344 1829 1382 1829Q1448 1829 1506 1779Q1567 1726 1567 1661Q1567 1623 1538 1583Q1489 1516 1395 1494Q1338 1481 1221 1481Q1102 1481 1044 1494Q948 1516 899 1583Q870 1623 870 1661Q870 1726 931 1779Q989 1829 1055 1829Q1094 1829 1125 1811Q1163 1790 1163 1755Q1163 1717 1112 1672Q1061 1627 1061 1602Q1061 1569 1128 1552Q1175 1540 1221 1540Z"  horiz-adv-x="1565" vert-adv-y="2150"  />

      
      <glyph glyph-name="uni041A" unicode="&#x041A;" d="M844 483L834 465Q768 545 722 572Q664 606 569 606Q483 606 421 561Q352 510 352 428Q352 338 439 283Q514 236 610 236Q746 236 865 357Q966 459 1018 604L1190 1079Q1146 1061 1081 1061Q1049 1061 993 1076.50Q937 1092 918 1092Q833 1092 786 1013Q776 998 725 862L690 862L870 1409Q964 1425 1040 1425Q1085 1425 1173.50 1407Q1262 1389 1307 1389Q1354 1389 1401 1415Q1454 1443 1464 1485L1497 1485L1430 1368Q1343 1216 1212 750L1245 780Q1299 922 1430 1165Q1593 1468 1853 1468Q1975 1468 2053.50 1387.50Q2132 1307 2132 1186Q2132 1072 2056 996Q1980 920 1866 920Q1671 920 1632 1096Q1643 1094 1657 1094Q1737 1094 1737 1153Q1737 1214 1661 1214Q1542 1214 1425 1060Q1384 1006 1270 803Q1413 924 1491 924Q1532 924 1558.50 893.50Q1585 863 1585 821Q1585 763 1548 632.50Q1511 502 1511 461Q1511 423 1538.50 392.50Q1566 362 1604 362Q1703 362 1772 448Q1796 478 1870 618L1903 612L1655-20L1624-12L1665 102Q1554-8 1430-8Q1345-8 1292 37Q1235 85 1235 168Q1235 205 1291 376Q1327 486 1364 596Q1397 700 1397 721Q1397 780 1343 780Q1283 780 1210 653Q1186 610 1124 469Q1067 339 1010 256Q920 125 793 49Q655-33 506-33Q198-33 70 152Q0 253 0 360Q0 442 39 526Q144 752 438 752Q569 752 679 676Q783 605 844 483Z"  horiz-adv-x="1778" vert-adv-y="2150"  />

      
      <glyph glyph-name="uni041B" unicode="&#x041B;" d="M1468 954Q1468 1112 1307 1112Q1162 1112 1059 1027Q980 962 897 817L860 819L1071 1366Q1245 1456 1397 1456Q1661 1456 1661 1245Q1661 1157 1597 927Q1554 780 1511 633Q1493 569 1493 518Q1493 481 1533 450Q1570 422 1608 422Q1681 422 1744 518Q1775 564 1825 680L1851 678L1616-12L1579-14L1606 84Q1501 4 1442 4Q1270 4 1270 152Q1270 204 1294 283L1432 739Q1468 858 1468 954M1102 831Q1102 888 1055 897Q1078 948 1141 994Q1208 1042 1262 1042Q1284 1042 1309 1036Q1274 1008 1253 949Q1239 899 1225 848Q1177 682 1129 515Q1056 292 975 195Q787-29 506-29Q298-29 162 66Q6 175 6 375Q6 542 136 654Q261 762 430 762Q588 762 713 670Q848 572 864 420Q838 506 762.50 559Q687 612 596 612Q492 612 415 557Q330 495 330 395Q330 298 404 237Q473 180 573 180Q701 180 804 242Q912 306 963 420Q996 495 1052 658Q1102 802 1102 831Z"  horiz-adv-x="1696" vert-adv-y="2150"  />

      
      <glyph glyph-name="uni041C" unicode="&#x041C;" d="M860 819L1071 1366Q1245 1456 1397 1456Q1541 1456 1605 1399Q1673 1338 1673 1196Q1673 1145 1661 1096Q1759 1292 1815 1354Q1918 1470 2079 1470Q2117 1470 2191.50 1465Q2266 1460 2304 1460Q2328 1460 2370 1478Q2412 1496 2433 1497L2435 1495L2435 1491Q2426 1474 2413 1444L2413 1442Q2283 1139 2206 1139Q2179 1139 2125 1142Q2071 1145 2044 1145Q1814 1145 1737 1081Q1634 995 1559 717L1393 100Q1383 64 1505-6L1061-4Q1145 16 1182 43Q1228 78 1251 152L1432 739Q1468 856 1468 954Q1468 1112 1307 1112Q1162 1112 1059 1027Q980 962 897 817L860 819M2107 1092Q1996 1018 1970 924L1888 633Q1870 569 1870 518Q1870 481 1910 450Q1947 422 1985 422Q2058 422 2122 519Q2150 561 2202 680L2228 678L1993-12L1956-14L1982 84Q1878 4 1819 4Q1647 4 1647 152Q1647 198 1671 283L1851 918Q1877 1012 1945 1049Q1989 1073 2107 1092M864 420Q838 506 762.50 559Q687 612 596 612Q492 612 415 557Q330 495 330 395Q330 298 404 237Q473 180 573 180Q698 180 805 242Q919 308 963 420L1049 637Q1102 771 1102 831Q1102 888 1055 897Q1078 948 1141 994Q1208 1042 1262 1042Q1284 1042 1309 1036Q1274 1008 1253 949Q1239 899 1225 848Q1177 682 1129 515Q1056 292 975 195Q787-29 506-29Q298-29 162 66Q6 175 6 375Q6 542 136 654Q261 762 430 762Q588 762 713 670Q848 572 864 420Z"  horiz-adv-x="2097" vert-adv-y="2150"  />

      
      <glyph glyph-name="uni041D" unicode="&#x041D;" d="M803 520L784 508Q748 551 682.50 581.50Q617 612 561 612Q478 612 414 552Q350 492 350 410Q350 332 410 278.50Q470 225 549 225Q659 225 758 305.50Q857 386 887 494L1047 1067Q932 1067 827 1090L829 1090Q757 1087 727 1047Q695 1004 631 842L600 840L788 1401Q904 1444 987 1444Q1026 1444 1101.50 1431.50Q1177 1419 1214 1419Q1264 1419 1366 1468Q1301 1393 1214 1200Q1132 1016 1110 909Q1103 874 1079 784L979 406Q864-27 467-27Q277-27 147 76Q6 188 6 373Q6 530 127 642Q248 754 406 754Q659 754 803 520M1786 1466Q1905 1466 1970.50 1400.50Q2036 1335 2036 1217Q2036 1102 1950 1028Q1868 958 1751 958Q1653 958 1610 1016Q1624 1010 1638 1010Q1669 1010 1692.50 1030.50Q1716 1051 1716 1081Q1716 1141 1638 1141Q1541 1141 1464 874Q1439 795 1414 716Q1384 612 1384 551Q1384 479 1415 431Q1452 375 1520 375Q1605 375 1689 485Q1763 582 1778 676L1810 670L1571-27L1534-20L1589 160Q1455-14 1339-14Q1267-14 1218 31Q1169 76 1169 147Q1169 197 1196 287L1477 1223Q1550 1466 1786 1466M1075 578L1149 797Q1196 820 1243 842Q1298 870 1321 909L1260 752Q1239 699 1217.50 679.50Q1196 660 1137 639L1075 578Z"  horiz-adv-x="1737" vert-adv-y="2150"  />

      
      <glyph glyph-name="uni041E" unicode="&#x041E;" d="M1405 1075Q1386 1105 1366 1145Q1275 1327 1047 1327Q803 1327 637 1146Q475 970 475 723Q475 567 547 479L637 700Q637 723 634 767.50Q631 812 631 834Q631 920 690 1022Q811 1231 1022 1231Q1227 1231 1352 1097Q1473 967 1473 760Q1473 444 1271 217Q1062-20 750-20Q610-20 455 68L414-35L373-23L414 92Q300 199 262.50 286.50Q225 374 225 532Q225 686 303 874Q411 1134 605 1298Q822 1481 1083 1481Q1304 1481 1415 1356Q1485 1277 1485 1210Q1485 1139 1405 1075M872 319Q1060 319 1192.50 451.50Q1325 584 1325 772Q1325 909 1248 1005Q1165 1110 1032 1110Q893 1110 805 969Q874 1012 961 1012Q1057 1012 1118.50 944Q1180 876 1180 780Q1180 665 1103 580Q1023 492 909 492Q841 492 765 540Q693 586 655 647L582 446Q614 391 711 353Q797 319 872 319M901 766Q931 766 953 790Q975 814 975 844Q975 922 877 922Q809 922 809 862Q809 826 837.50 796Q866 766 901 766Z"  horiz-adv-x="1352" vert-adv-y="2150"  />

      
      <glyph glyph-name="uni041F" unicode="&#x041F;" d="M707 848L897 1397Q1051 1481 1235 1481Q1413 1481 1782 1401Q1828 1391 1858 1391Q1889 1391 1917 1428Q1936 1460 1956 1491L1985 1491Q1927 1357 1870 1222Q1784 1053 1673 1053Q1529 1053 1354 1090Q1194 1124 1106 1124Q819 1124 737 846L707 848M987 502Q999 525 1016 569Q1047 643 1077 718Q1114 814 1114 872Q1114 915 1061 958Q1198 1073 1298 1073Q1327 1073 1358 1067Q1293 1026 1247 874L1165 604Q1143 529 1094 381Q1145 264 1145 145Q1145 39 1126-35L1096-35Q1112 100 1112 129Q1112 248 1061 322Q1032 269 981 209Q877 89 773 35Q661-23 510-23Q317-23 171 76Q6 188 6 373Q6 552 141 655Q264 748 449 748Q585 748 739 674Q883 605 987 502M598 600Q503 600 433 554Q352 501 352 410Q352 227 596 227Q705 227 812 290Q926 359 958 457Q824 600 598 600M1686 1014Q1694 1014 1694 1006Q1591 925 1573 844L1524 627Q1501 525 1501 502Q1501 463 1527 433Q1553 403 1591 403Q1702 403 1821 690L1843 690L1608-4L1569-6L1571 57Q1526-14 1442-14Q1363-14 1307 40.50Q1251 95 1251 174Q1251 218 1290 342L1440 819Q1471 918 1571 971Q1652 1014 1686 1014Z"  horiz-adv-x="1729" vert-adv-y="2150"  />

      
      <glyph glyph-name="uni0420" unicode="&#x0420;" d="M1028 553Q1067 629 1077 709Q995 752 958 821Q1003 812 1094 797Q1114 879 1114 915Q1114 968 1059 975Q1133 1085 1241 1085Q1279 1085 1323 1067Q1268 1014 1243 942Q1235 919 1208 797Q1403 801 1403 979Q1403 1135 1206 1135Q931 1135 651 840L612 844L827 1354Q1016 1470 1233 1470Q1409 1470 1522 1379Q1645 1280 1645 1108Q1645 878 1440 752Q1367 707 1188 686Q1178 621 1114 469Q1204 319 1204 190Q1204 80 1176-29L1133-31Q1163 68 1163 176Q1163 322 1090 408Q906-33 479-33Q292-33 157 72Q10 186 10 367Q10 565 141 683Q267 797 466 797Q625 797 770 727Q877 675 1028 553M621 655Q530 655 496 641Q350 581 350 438Q350 246 600 246Q726 246 836 316Q950 387 997 502Q930 569 823.50 612Q717 655 621 655Z"  horiz-adv-x="1458" vert-adv-y="2150"  />

      
      <glyph glyph-name="uni0421" unicode="&#x0421;" d="M684 659L590 397Q635 350 733 322Q817 297 895 297Q1133 297 1304 475Q1397 571 1430 651L1468 657Q1319 321 1221 201Q1042-18 770-18Q703-18 619-2Q520 17 481 47L453-31L414-10L442 72Q344 138 292 267Q246 381 246 512Q246 719 370 951Q486 1168 655 1311Q849 1475 1081 1475Q1269 1475 1383 1372Q1503 1265 1503 1079Q1503 882 1336 718.50Q1169 555 971 555Q823 555 684 659M1034 905Q1123 905 1183 969.50Q1243 1034 1243 1124Q1243 1209 1173.50 1268Q1104 1327 1018 1327Q799 1327 637 1109Q489 909 489 682Q489 494 561 426Q670 715 815 1167Q825 905 1034 905Z"  horiz-adv-x="1343" vert-adv-y="2150"  />

      
      <glyph glyph-name="uni0422" unicode="&#x0422;" d="M987 502Q999 525 1016 569Q1047 643 1077 718Q1114 814 1114 872Q1114 915 1061 958Q1198 1073 1298 1073Q1327 1073 1358 1067Q1293 1026 1247 874L1165 604Q1143 529 1094 381Q1145 264 1145 145Q1145 39 1126-35L1096-35Q1112 100 1112 129Q1112 248 1061 322Q1032 269 981 209Q877 89 773 35Q661-23 510-23Q317-23 171 76Q6 188 6 373Q6 552 141 655Q264 748 449 748Q585 748 739 674Q883 605 987 502M598 600Q503 600 433 554Q352 501 352 410Q352 227 596 227Q705 227 812 290Q926 359 958 457Q824 600 598 600M2079 1014Q2087 1014 2087 1006Q1984 925 1966 844L1917 627Q1894 525 1894 502Q1894 463 1920 433Q1946 403 1985 403Q2102 403 2214 690L2236 690L2001-4L1962-6L1964 57Q1919-14 1835-14Q1755-14 1700 40Q1645 94 1645 174Q1645 221 1683 342L1833 819Q1864 918 1964 971Q2045 1014 2079 1014M1724 1020Q1733 1020 1733 1012Q1683 973 1673 963Q1643 935 1624 903Q1617 890 1606 854L1450 326Q1449 323 1391 147Q1360 53 1253 2Q1172-37 1139-37Q1129-37 1130-29Q1177 8 1190 20Q1222 49 1239 80Q1246 92 1257 129L1473 836Q1494 904 1574.50 962Q1655 1020 1724 1020M2238 1391Q2270 1391 2298 1428Q2317 1459 2337 1491L2365 1491Q2308 1356 2251 1221Q2167 1058 2054 1053Q1930 1047 1919 1047Q1782 1047 1512.50 1085.50Q1243 1124 1106 1124Q821 1124 737 846L707 848L897 1397Q1053 1481 1235 1481Q1287 1481 1680 1437Q2100 1391 2238 1391Z"  horiz-adv-x="2122" vert-adv-y="2150"  />

      
      <glyph glyph-name="uni0423" unicode="&#x0423;" d="M1231 639Q1151 532 1067 532Q976 532 911 599Q850 664 834 790Q826 894 818 999Q803 1109 743 1149Q741 1160 709 1169Q683 1176 668 1176Q591 1176 540 1141Q483 1100 483 1026Q483 866 651 866Q715 866 774 928Q748 850 650 797Q560 748 471 748Q336 748 239 852Q145 953 145 1090Q145 1192 223 1290Q352 1452 608 1452Q775 1452 884 1349Q993 1246 993 1081Q993 1051 987 991Q981 931 981 901Q981 659 1130 659Q1229 659 1308 868Q1378 1062 1447 1257Q1542 1466 1679 1466Q1731 1466 1794 1434L1659 1049Q1614 1110 1581 1110Q1551 1110 1528 1079Q1505 1048 1329 563Q1238 311 1167 213Q1056 60 852-2Q793-20 682-20Q580-20 475 24Q428 43 287 121L229-35L190-33L408 590Q466 470 591.50 388.50Q717 307 848 307Q986 307 1093 408Q1190 499 1231 639Z"  horiz-adv-x="1352" vert-adv-y="2150"  />

      
      <glyph glyph-name="uni0424" unicode="&#x0424;" d="M1192 356L1210 348L1077 29Q966-41 860-41Q819-41 743.50 1Q668 43 627 43Q537 43 475-16L461 16Q552 91 587 164Q606 204 647 354Q492 366 366 452Q219 552 219 696Q219 1100 848 1100L866 1155Q817 1130 750 1130Q721 1130 663.50 1158Q606 1186 588 1186Q549 1186 516 1143Q493 1106 469 1069L451 1077L584 1397Q707 1466 801 1466Q842 1466 917.50 1424Q993 1382 1034 1382Q1123 1382 1186 1442L1200 1409Q1121 1344 1078 1262Q1058 1225 1006 1083Q1057 1074 1157 1049Q1271 1011 1350 934Q1442 843 1442 735Q1442 338 809 338L788 256Q843 295 911 295Q940 295 997.50 267.50Q1055 240 1073 240Q1146 240 1192 356M825 389Q1081 415 1143 672Q1149 697 1149 733Q1149 930 991 1034L825 389M838 1051Q583 1026 520 768Q514 744 514 705Q514 511 662 406L838 1051Z"  horiz-adv-x="1335" vert-adv-y="2150"  />

      
      <glyph glyph-name="uni0425" unicode="&#x0425;" d="M520-27Q326-27 184 87Q31 210 31 399Q31 552 136 664Q241 776 393 776Q578 776 678 713Q784 648 852 481L831 475Q737 635 588 635Q501 635 443 587Q381 535 381 449Q381 361 456 301Q525 246 616 246Q773 246 898.50 356.50Q1024 467 1051 623Q1035 633 1006 633Q946 633 903 565L903 580Q903 668 949 731Q999 801 1083 807Q1090 852 1090 870Q1090 989 1008.50 1065Q927 1141 807 1141Q542 1141 463 893L434 893L596 1395Q784 1462 858 1462Q1219 1462 1219 1063Q1368 1470 1688 1470Q1782 1470 1844 1419Q1911 1364 1911 1272Q1911 1169 1845 1105.50Q1779 1042 1675 1042Q1624 1042 1589 1057Q1608 1085 1608 1118Q1608 1190 1528 1190Q1426 1190 1326 1047Q1241 925 1219 807Q1233 803 1249 803Q1298 803 1335 827Q1354 839 1403 887L1327 731Q1299 673 1271.50 653Q1244 633 1178 621Q1163 537 1163 520Q1163 444 1210 399Q1257 354 1333 354Q1416 354 1489 421Q1559 485 1579 569L1606 569L1427-29L1395-27L1409 80Q1358 22 1319 3Q1276-18 1202-18Q1131-18 1076.50 33Q1022 84 1022 154Q1022 210 1038 297Q1060 411 1063 438Q1050 405 991 289Q908 126 807 54Q695-27 520-27Z"  horiz-adv-x="1565" vert-adv-y="2150"  />

      
      <glyph glyph-name="uni0426" unicode="&#x0426;" d="M698 416Q686 422 674 422Q621 422 621 365Q621 302 675 267Q721 236 788 236Q922 236 1075 420Q1184 551 1257 774L1411 1245Q1485 1473 1686 1473Q1733 1473 1788 1458L1632 991L1599 997Q1620 1038 1620 1106Q1620 1147 1577 1147Q1514 1147 1458 954L1346 571Q1335 533 1335 500Q1335 454 1360 420Q1388 381 1432 381Q1490 381 1555 467Q1605 534 1634 608L1667 606L1452-16L1407-14L1438 68Q1356-14 1266-14Q1133-14 1133 147Q1133 226 1161 349Q1194 501 1200 549Q1135 426 1070 303Q985 150 902 74Q791-27 653-27Q520-27 427 53Q330 137 330 268Q330 371 388 438Q450 508 551 508Q637 508 698 416M926 952Q926 1078 841 1148Q762 1212 633 1212Q550 1212 495 1165Q436 1116 436 1034Q436 949 496 897Q552 848 639 848Q778 848 819 952L850 944Q814 844 730.50 785.50Q647 727 541 727Q370 727 257 812Q131 905 131 1071Q131 1252 280 1359Q413 1454 600 1454Q789 1454 919 1358Q1063 1252 1063 1069Q1063 939 1008 747Q1001 721 907 436Q900 416 950 369Q893 295 803 295Q729 295 694 365Q758 381 782 453L901 811Q902 815 914 881Q926 947 926 952Z"  horiz-adv-x="1565" vert-adv-y="2150"  />

      
      <glyph glyph-name="uni0427" unicode="&#x0427;" d="M1018 639Q895 549 774 549Q573 549 463 715Q500 702 557 702Q668 702 747.50 771.50Q827 841 827 950Q827 1069 746 1132Q673 1190 551 1190Q473 1190 424 1155Q367 1115 367 1040Q367 881 535 881Q598 881 657 942Q631 864 533 811Q443 762 354 762Q218 762 122 866Q29 967 29 1104Q29 1209 106 1305Q236 1466 504 1466Q685 1466 822 1366Q973 1256 973 1081Q973 928 906 837Q854 765 709 674Q776 633 850 633Q936 633 998.50 691.50Q1061 750 1130 962Q1216 1227 1255 1300Q1341 1466 1466 1466Q1518 1466 1581 1434L1446 1049Q1401 1110 1368 1110Q1339 1110 1315 1079Q1274 1027 1202 787Q1133 558 1133 502Q1133 462 1158 432.50Q1183 403 1223 403Q1340 403 1452 690L1475 690L1239-4L1200-6L1202 57Q1157-14 1073-14Q994-14 938.50 40.50Q883 95 883 174Q883 233 943 420Q981 529 1018 639Z"  horiz-adv-x="1368" vert-adv-y="2150"  />

      
      <glyph glyph-name="uni0428" unicode="&#x0428;" d="M639 393Q670 371 707 371Q851 371 915 553L1180 1307Q1189 1332 1126 1352Q1235 1460 1325 1460Q1364 1460 1397 1446L1399 1444Q1338 1407 1309 1323L1008 463Q987 403 987 391Q987 360 1034 360Q1207 360 1266 567L1479 1317Q1497 1382 1563 1420Q1623 1456 1694 1456Q1712 1456 1735 1452Q1610 1402 1550 1147L1360 336Q1280-6 1014-6L512-6Q358-6 264 88L375 557L403 557Q391 535 391 485Q391 391 461 391Q516 391 539 455L729 975Q729 1010 676 1020Q655 1022 614 1028Q589 1032 526 1058Q468 1083 453 1083Q403 1083 358 1004Q351 994 301 881L283 889L469 1397Q591 1466 686 1466Q723 1466 802.50 1425Q882 1384 930 1384Q956 1384 1000 1400Q1044 1416 1063 1434L1081 1409Q1037 1373 1008 1324Q979 1275 949 1196Q924 1131 900 1065Q859 963 639 393Z"  horiz-adv-x="1532" vert-adv-y="2150"  />

      
      <glyph glyph-name="uni0429" unicode="&#x0429;" d="M1458 111Q1395-6 1274-6L463-6Q306-6 215 88L326 557L354 557Q342 535 342 485Q342 391 412 391Q465 391 489 455L680 975Q680 1010 627 1020Q606 1022 565 1028Q539 1032 477 1058Q419 1083 403 1083Q354 1083 308 1004Q302 993 252 881L233 889L420 1397Q542 1466 637 1466Q673 1466 752.50 1425Q832 1384 881 1384Q908 1384 951.50 1400Q995 1416 1014 1434L1032 1409Q988 1373 959 1324Q930 1275 900 1196Q875 1131 851 1065Q810 963 590 393Q621 371 657 371Q802 371 866 553L1130 1307Q1139 1332 1077 1352Q1186 1460 1276 1460Q1315 1460 1348 1446L1350 1444Q1289 1407 1260 1323L958 463Q938 406 938 391Q938 360 985 360Q1158 360 1217 567L1430 1317Q1449 1383 1513 1421Q1572 1456 1645 1456Q1663 1456 1686 1452Q1561 1404 1501 1147L1360 547Q1356 530 1356 485Q1356 448 1382.50 421.50Q1409 395 1446 395Q1510 395 1571 485Q1588 510 1649 631L1681 627L1470 6L1427 4Q1438 52 1458 111Z"  horiz-adv-x="1548" vert-adv-y="2150"  />

      
      <glyph glyph-name="uni042A" unicode="&#x042A;" d="M975 750Q1086 728 1169.50 638Q1253 548 1266 436Q1242 514 1155.50 581.50Q1069 649 989 649Q885 649 808 594Q723 532 723 432Q723 355 784 281Q845 207 999 207Q1133 207 1235 326Q1333 440 1333 575Q1333 659 1264 720Q1197 778 1112 778Q1049 778 975 750M643 735Q716 768 737 768Q827 833 944 878Q1071 926 1171 926Q1360 926 1474 822Q1593 715 1593 530Q1593 388 1491 248Q1384 102 1235 41Q1105-12 907-12Q699-12 564 82Q408 190 408 391Q408 442 418 471L590 975Q595 988 571 1004Q552 1017 537 1020Q516 1022 475 1028Q449 1032 387 1059Q329 1083 313 1083Q264 1083 218 1004Q212 993 162 881L143 889L330 1397Q452 1466 547 1466Q584 1466 663.50 1425Q743 1384 791 1384Q817 1384 861.50 1400Q906 1416 924 1434L942 1409Q851 1336 803 1196L643 735Z"  horiz-adv-x="1589" vert-adv-y="2150"  />

      
      <glyph glyph-name="uni042B" unicode="&#x042B;" d="M811 756Q923 726 1005 639Q1089 548 1102 436Q1078 514 991.50 581.50Q905 649 825 649Q721 649 644 594Q559 532 559 432Q559 321 645 260Q721 207 836 207Q969 207 1071 326Q1169 440 1169 575Q1169 661 1098 721Q1031 778 944 778Q868 778 811 756M258 266Q240 324 240 391Q240 493 307 594Q373 692 467 737L649 1262Q631 1261 631 1274Q631 1317 741 1388Q847 1456 895 1456Q904 1456 903 1448Q813 1377 782 1286L612 778Q785 926 1008 926Q1195 926 1310 822Q1430 714 1430 530Q1430 389 1327 248Q1220 102 1071 41Q941-12 743-12Q518-12 387 96L197-37Q197 108 258 266M2034 1466Q2153 1466 2218.50 1400.50Q2284 1335 2284 1217Q2284 1102 2198 1028Q2116 958 1999 958Q1901 958 1858 1016Q1872 1010 1886 1010Q1917 1010 1940.50 1030.50Q1964 1051 1964 1081Q1964 1141 1886 1141Q1789 1141 1712 874Q1687 795 1662 716Q1632 612 1632 551Q1632 480 1663 432Q1700 375 1767 375Q1852 375 1936 485Q2011 583 2025 676L2058 670L1819-27L1782-20L1837 160Q1703-14 1587-14Q1515-14 1466 30.50Q1417 75 1417 147Q1417 197 1444 287L1724 1223Q1797 1466 2034 1466M1393 774L1466 993Q1514 1015 1561 1038Q1616 1066 1638 1106L1577 948Q1575 938 1569 918Q1552 871 1454 836L1393 774Z"  horiz-adv-x="1991" vert-adv-y="2150"  />

      
      <glyph glyph-name="uni042C" unicode="&#x042C;" d="M565 762Q759 926 991 926Q1179 926 1294 823Q1413 715 1413 530Q1413 388 1311 248Q1204 102 1055 41Q924-12 727-12Q519-12 383 83Q227 191 227 391Q227 488 282 579Q335 667 420 719L608 1262Q642 1361 739 1413Q819 1456 854 1456Q863 1456 862 1448Q772 1377 741 1286L565 762M807 754Q918 716 993 634Q1073 547 1085 436Q1061 514 975 581.50Q889 649 809 649Q705 649 628 594Q543 532 543 432Q543 355 604 281Q665 207 819 207Q953 207 1055 325Q1153 439 1153 575Q1153 660 1083.50 719Q1014 778 928 778Q854 778 807 754Z"  horiz-adv-x="1425" vert-adv-y="2150"  />

      
      <glyph glyph-name="uni042D" unicode="&#x042D;" d="M877 1475Q1172 1475 1381 1291Q1599 1098 1599 807Q1599 479 1371 227Q1136-31 811-31Q572-31 414 104Q246 248 246 483Q246 632 341 724.50Q436 817 586 817Q737 817 772 674Q728 686 717 686Q641 686 600 631Q563 582 563 504Q563 377 699 312Q803 262 946 262Q1144 262 1292 398Q1444 537 1444 733Q1444 933 1293 1062Q1150 1184 947 1184Q590 1184 340 866Q304 821 295 758L260 776L414 1268Q417 1279 462 1323Q615 1475 877 1475M1178 440Q1180 454 1180 476Q1180 644 1116 696Q1100 709 1094 709Q1080 709 1028 571L997 586L1139 1004Q1266 902 1266 756Q1266 567 1178 440Z"  horiz-adv-x="1548" vert-adv-y="2150"  />

      
      <glyph glyph-name="uni042E" unicode="&#x042E;" d="M811 520L793 508Q703 612 569 612Q486 612 422 552Q358 492 358 410Q358 332 418 278.50Q478 225 557 225Q668 225 768 306Q865 385 895 494L1055 1067Q942 1067 836 1090L838 1090Q765 1088 734 1046Q703 1004 639 842L608 840L797 1401Q912 1444 995 1444Q1034 1444 1110 1431.50Q1186 1419 1223 1419Q1272 1419 1374 1468Q1310 1395 1223 1200Q1140 1014 1118 909Q1111 873 1087 784L987 406Q872-27 475-27Q189-27 68 182Q14 275 14 373Q14 530 135 642Q256 754 414 754Q668 754 811 520M1083 578L1157 797Q1204 819 1252 842Q1307 870 1329 909L1268 752Q1266 741 1260 721Q1243 674 1145 639L1083 578M1757-16Q1538-16 1404 139Q1276 286 1276 508Q1276 883 1502 1163Q1744 1462 2111 1462Q2533 1462 2533 1208Q2533 1161 2506 1127Q2477 1090 2431 1090Q2367 1341 2097 1341Q1864 1341 1689 1148Q1520 961 1520 725Q1520 589 1547 509Q1583 402 1679 338Q1759 285 1835 285Q2054 285 2208.50 436.50Q2363 588 2363 807Q2363 911 2312 979Q2255 1055 2154 1055Q2085 1055 2039 1009.50Q1993 964 1993 895Q1993 801 2066 801Q2087 801 2115 814.50Q2143 828 2150 846Q2157 800 2157 788Q2157 693 2106 632Q2052 567 1960 567Q1868 567 1812 636Q1761 700 1761 795Q1761 973 1875 1080Q1986 1184 2165 1184Q2326 1184 2427 1055Q2519 936 2519 770Q2519 518 2401 326Q2275 123 2046 39Q1895-16 1757-16Z"  horiz-adv-x="2449" vert-adv-y="2150"  />

      
      <glyph glyph-name="uni042F" unicode="&#x042F;" d="M1726 1456Q1735 1456 1735 1448Q1648 1384 1614 1286L1384 627Q1362 564 1362 502Q1362 463 1388 433Q1414 403 1452 403Q1569 403 1681 690L1704 690L1468-4L1430-6L1432 57Q1386-14 1303-14Q1224-14 1168 40.50Q1112 95 1112 174Q1112 233 1151 342L1481 1262Q1517 1362 1612 1413Q1693 1456 1726 1456M848 618Q742 618 656.50 698Q571 778 553 886Q545 937 545 998Q545 1209 679.50 1339.50Q814 1470 1024 1470Q1233 1470 1409 1294L1159 629Q1038 308 923 176Q753-20 469-20Q367-20 262 24Q215 43 74 121L16-35L-23-33L195 590Q253 470 378.50 388.50Q504 307 635 307Q830 307 969 454Q1063 554 1167 776Q1194 833 1194 891Q1194 989 1129 1061Q1064 1133 968 1133Q846 1133 757 1065Q659 990 659 872Q659 806 703 753Q750 696 815 696Q1019 696 1065 975Q1102 902 1102 834Q1102 726 1026 669Q959 618 848 618Z"  horiz-adv-x="1638" vert-adv-y="2150"  />

      
      <glyph glyph-name="uni0430" unicode="&#x0430;" d="M995 774L680 614Q657 637 604 637Q512 637 442 532Q379 437 379 340Q379 285 413.50 246Q448 207 502 207Q601 207 669 321Q727 420 727 524Q727 557 711 590L995 731Q952 612 909 492Q836 285 836 248Q836 209 879 209Q913 209 983 326L1004 322Q952 214 901 106Q827-23 719-23Q614-23 614 102Q614 159 629 205Q534 80 518 62Q437-25 369-25Q286-25 230 40Q176 102 176 186Q176 416 356 637Q545 870 768 870Q934 870 995 774Z"  horiz-adv-x="932" vert-adv-y="2150"  />

      
      <glyph glyph-name="uni0431" unicode="&#x0431;" d="M610 1096Q610 1198 651 1303Q701 1429 782 1456Q822 1470 877 1470Q901 1470 947.50 1464Q994 1458 1018 1458Q1083 1458 1112 1509L1030 1270Q1019 1238 938 1238Q930 1238 914 1238Q898 1238 890 1238Q805 1238 805 1198Q805 1121 888 952Q971 783 971 653Q971 433 855 222Q719-25 518-25Q380-25 301 80Q229 174 229 317Q229 513 329 666Q442 837 627 856Q676 776 725 696Q776 600 776 518Q776 498 774 475L745 475Q750 492 750 506Q750 565 693 606Q642 643 580 643Q483 643 430 577Q381 517 381 418Q381 339 431.50 283Q482 227 561 227Q683 227 761 328Q831 420 831 545Q831 643 720.50 834.50Q610 1026 610 1096Z"  horiz-adv-x="891" vert-adv-y="2150"  />

      
      <glyph glyph-name="uni0432" unicode="&#x0432;" d="M453 332Q453 227 586 227Q668 227 737.50 295.50Q807 364 807 446Q807 557 698 557Q592 557 555 455L537 459L651 766Q721 778 760 778Q854 778 913.50 723Q973 668 973 575L973 530Q973 345 836 170Q690-16 512-16Q244-16 244 203Q244 384 541 1126Q587 1240 682 1303Q768 1360 891 1360Q1135 1360 1135 1126Q1135 1001 1036.50 906Q938 811 813 811Q758 811 715 851Q672 891 670 946Q727 864 805 864Q849 864 882 930Q909 985 909 1034Q909 1080 880 1113.50Q851 1147 805 1147Q771 1147 742 1120.50Q713 1094 696 1049Q632 879 469 412Q453 366 453 332Z"  horiz-adv-x="924" vert-adv-y="2150"  />

      
      <glyph glyph-name="uni0433" unicode="&#x0433;" d="M471 639Q471 610 532 610Q553 610 569 614Q434 543 369 543Q260 543 260 631Q260 744 391 813Q500 870 623 870Q848 870 848 719Q848 551 709 492Q515 409 507 404Q375 331 375 240Q375 154 475 154Q565 154 635 231Q643 251 643 264Q643 291 528 297Q627 377 737 377Q854 377 854 274Q854 201 778 113Q663-20 403-20Q309-20 248 19Q176 65 176 154Q176 305 299 404Q342 439 528 534Q651 597 651 659Q651 717 582 717Q542 717 510 698Q471 676 471 639Z"  horiz-adv-x="786" vert-adv-y="2150"  />

      
      <glyph glyph-name="uni0434" unicode="&#x0434;" d="M776 870Q946 870 989 772L719 608Q686 645 637 645Q535 645 451 513Q375 395 375 285Q375 233 409.50 199.50Q444 166 496 166Q592 166 678 299Q756 421 756 524Q756 553 739 582L1008 739L741-121Q679-321 573-414Q455-516 254-516Q146-516 58-465Q-45-405-45-305Q-45-220 34-161Q107-106 195-106Q280-106 338-144Q382-174 440-252L422-270Q375-209 285-209Q180-209 180-313Q180-403 285-403Q385-403 445-334Q489-285 528-174Q561-88 593-1Q638 122 641 172Q532 41 519 29Q442-43 354-43Q178-43 178 178Q178 423 340 625Q537 870 776 870Z"  horiz-adv-x="924" vert-adv-y="2150"  />

      
      <glyph glyph-name="uni0435" unicode="&#x0435;" d="M416 475Q471 393 551 393Q609 393 657 439Q705 485 705 543Q705 599 662 635Q622 668 565 668Q480 668 417 578Q360 497 360 408Q360 312 434 246Q505 182 602 182Q707 182 811.50 262.50Q916 343 950 444L977 438Q958 377 872 229Q729-18 520-18Q384-18 296 84Q213 181 213 319Q213 470 295 604Q374 734 508 811Q606 868 686 868Q930 868 930 635Q930 511 831 415Q732 319 608 319Q539 319 482 362Q420 409 416 475Z"  horiz-adv-x="852" vert-adv-y="2150"  />

      
      </font>
</defs>
</svg>
